<?xml version="1.0" encoding="utf-8" standalone="no"?>
<!DOCTYPE svg PUBLIC "-//W3C//DTD SVG 1.1//EN"
  "http://www.w3.org/Graphics/SVG/1.1/DTD/svg11.dtd">
<!-- Created with matplotlib (https://matplotlib.org/) -->
<svg height="264.672687pt" version="1.1" viewBox="0 0 462.853469 264.672687" width="462.853469pt" xmlns="http://www.w3.org/2000/svg" xmlns:xlink="http://www.w3.org/1999/xlink">
 <defs>
  <style type="text/css">
*{stroke-linecap:butt;stroke-linejoin:round;}
  </style>
 </defs>
 <g id="figure_1">
  <g id="patch_1">
   <path d="M 0 264.672687 
L 462.853469 264.672687 
L 462.853469 0 
L 0 0 
z
" style="fill:#ffffff;stroke:#ffffff;stroke-linejoin:miter;"/>
  </g>
  <g id="axes_1">
   <g id="patch_2">
    <path d="M 38.393938 228.96 
L 373.193938 228.96 
L 373.193938 7.2 
L 38.393938 7.2 
z
" style="fill:#ebebeb;"/>
   </g>
   <g id="matplotlib.axis_1">
    <g id="xtick_1">
     <g id="line2d_1">
      <path clip-path="url(#p78957538b2)" d="M 83.820128 228.96 
L 83.820128 7.2 
" style="fill:none;stroke:#ffffff;"/>
     </g>
     <g id="line2d_2">
      <path d="M 83.820128 228.96 
" style="fill:none;stroke:#333333;stroke-width:1.5;"/>
      <defs>
       <path d="M 0 0 
L 0 2.75 
" id="m8eebac77ef" style="stroke:#333333;"/>
      </defs>
      <g>
       <use style="fill:#333333;stroke:#333333;" x="83.820128" xlink:href="#m8eebac77ef" y="228.96"/>
      </g>
     </g>
     <g id="text_1">
      <!-- 1 -->
      <defs>
       <path d="M 12.40625 8.296875 
L 28.515625 8.296875 
L 28.515625 63.921875 
L 10.984375 60.40625 
L 10.984375 69.390625 
L 28.421875 72.90625 
L 38.28125 72.90625 
L 38.28125 8.296875 
L 54.390625 8.296875 
L 54.390625 0 
L 12.40625 0 
z
" id="DejaVuSans-49"/>
      </defs>
      <g style="fill:#4d4d4d;" transform="translate(81.020628 240.596625)scale(0.088 -0.088)">
       <use xlink:href="#DejaVuSans-49"/>
      </g>
     </g>
    </g>
    <g id="xtick_2">
     <g id="line2d_3">
      <path clip-path="url(#p78957538b2)" d="M 152.073591 228.96 
L 152.073591 7.2 
" style="fill:none;stroke:#ffffff;"/>
     </g>
     <g id="line2d_4">
      <path d="M 152.073591 228.96 
" style="fill:none;stroke:#333333;stroke-width:1.5;"/>
      <g>
       <use style="fill:#333333;stroke:#333333;" x="152.073591" xlink:href="#m8eebac77ef" y="228.96"/>
      </g>
     </g>
     <g id="text_2">
      <!-- 2 -->
      <defs>
       <path d="M 19.1875 8.296875 
L 53.609375 8.296875 
L 53.609375 0 
L 7.328125 0 
L 7.328125 8.296875 
Q 12.9375 14.109375 22.625 23.890625 
Q 32.328125 33.6875 34.8125 36.53125 
Q 39.546875 41.84375 41.421875 45.53125 
Q 43.3125 49.21875 43.3125 52.78125 
Q 43.3125 58.59375 39.234375 62.25 
Q 35.15625 65.921875 28.609375 65.921875 
Q 23.96875 65.921875 18.8125 64.3125 
Q 13.671875 62.703125 7.8125 59.421875 
L 7.8125 69.390625 
Q 13.765625 71.78125 18.9375 73 
Q 24.125 74.21875 28.421875 74.21875 
Q 39.75 74.21875 46.484375 68.546875 
Q 53.21875 62.890625 53.21875 53.421875 
Q 53.21875 48.921875 51.53125 44.890625 
Q 49.859375 40.875 45.40625 35.40625 
Q 44.1875 33.984375 37.640625 27.21875 
Q 31.109375 20.453125 19.1875 8.296875 
z
" id="DejaVuSans-50"/>
      </defs>
      <g style="fill:#4d4d4d;" transform="translate(149.274091 240.596625)scale(0.088 -0.088)">
       <use xlink:href="#DejaVuSans-50"/>
      </g>
     </g>
    </g>
    <g id="xtick_3">
     <g id="line2d_5">
      <path clip-path="url(#p78957538b2)" d="M 220.327054 228.96 
L 220.327054 7.2 
" style="fill:none;stroke:#ffffff;"/>
     </g>
     <g id="line2d_6">
      <path d="M 220.327054 228.96 
" style="fill:none;stroke:#333333;stroke-width:1.5;"/>
      <g>
       <use style="fill:#333333;stroke:#333333;" x="220.327054" xlink:href="#m8eebac77ef" y="228.96"/>
      </g>
     </g>
     <g id="text_3">
      <!-- 3 -->
      <defs>
       <path d="M 40.578125 39.3125 
Q 47.65625 37.796875 51.625 33 
Q 55.609375 28.21875 55.609375 21.1875 
Q 55.609375 10.40625 48.1875 4.484375 
Q 40.765625 -1.421875 27.09375 -1.421875 
Q 22.515625 -1.421875 17.65625 -0.515625 
Q 12.796875 0.390625 7.625 2.203125 
L 7.625 11.71875 
Q 11.71875 9.328125 16.59375 8.109375 
Q 21.484375 6.890625 26.8125 6.890625 
Q 36.078125 6.890625 40.9375 10.546875 
Q 45.796875 14.203125 45.796875 21.1875 
Q 45.796875 27.640625 41.28125 31.265625 
Q 36.765625 34.90625 28.71875 34.90625 
L 20.21875 34.90625 
L 20.21875 43.015625 
L 29.109375 43.015625 
Q 36.375 43.015625 40.234375 45.921875 
Q 44.09375 48.828125 44.09375 54.296875 
Q 44.09375 59.90625 40.109375 62.90625 
Q 36.140625 65.921875 28.71875 65.921875 
Q 24.65625 65.921875 20.015625 65.03125 
Q 15.375 64.15625 9.8125 62.3125 
L 9.8125 71.09375 
Q 15.4375 72.65625 20.34375 73.4375 
Q 25.25 74.21875 29.59375 74.21875 
Q 40.828125 74.21875 47.359375 69.109375 
Q 53.90625 64.015625 53.90625 55.328125 
Q 53.90625 49.265625 50.4375 45.09375 
Q 46.96875 40.921875 40.578125 39.3125 
z
" id="DejaVuSans-51"/>
      </defs>
      <g style="fill:#4d4d4d;" transform="translate(217.527554 240.596625)scale(0.088 -0.088)">
       <use xlink:href="#DejaVuSans-51"/>
      </g>
     </g>
    </g>
    <g id="xtick_4">
     <g id="line2d_7">
      <path clip-path="url(#p78957538b2)" d="M 288.580518 228.96 
L 288.580518 7.2 
" style="fill:none;stroke:#ffffff;"/>
     </g>
     <g id="line2d_8">
      <path d="M 288.580518 228.96 
" style="fill:none;stroke:#333333;stroke-width:1.5;"/>
      <g>
       <use style="fill:#333333;stroke:#333333;" x="288.580518" xlink:href="#m8eebac77ef" y="228.96"/>
      </g>
     </g>
     <g id="text_4">
      <!-- 4 -->
      <defs>
       <path d="M 37.796875 64.3125 
L 12.890625 25.390625 
L 37.796875 25.390625 
z
M 35.203125 72.90625 
L 47.609375 72.90625 
L 47.609375 25.390625 
L 58.015625 25.390625 
L 58.015625 17.1875 
L 47.609375 17.1875 
L 47.609375 0 
L 37.796875 0 
L 37.796875 17.1875 
L 4.890625 17.1875 
L 4.890625 26.703125 
z
" id="DejaVuSans-52"/>
      </defs>
      <g style="fill:#4d4d4d;" transform="translate(285.781018 240.596625)scale(0.088 -0.088)">
       <use xlink:href="#DejaVuSans-52"/>
      </g>
     </g>
    </g>
    <g id="xtick_5">
     <g id="line2d_9">
      <path clip-path="url(#p78957538b2)" d="M 356.833981 228.96 
L 356.833981 7.2 
" style="fill:none;stroke:#ffffff;"/>
     </g>
     <g id="line2d_10">
      <path d="M 356.833981 228.96 
" style="fill:none;stroke:#333333;stroke-width:1.5;"/>
      <g>
       <use style="fill:#333333;stroke:#333333;" x="356.833981" xlink:href="#m8eebac77ef" y="228.96"/>
      </g>
     </g>
     <g id="text_5">
      <!-- 5 -->
      <defs>
       <path d="M 10.796875 72.90625 
L 49.515625 72.90625 
L 49.515625 64.59375 
L 19.828125 64.59375 
L 19.828125 46.734375 
Q 21.96875 47.46875 24.109375 47.828125 
Q 26.265625 48.1875 28.421875 48.1875 
Q 40.625 48.1875 47.75 41.5 
Q 54.890625 34.8125 54.890625 23.390625 
Q 54.890625 11.625 47.5625 5.09375 
Q 40.234375 -1.421875 26.90625 -1.421875 
Q 22.3125 -1.421875 17.546875 -0.640625 
Q 12.796875 0.140625 7.71875 1.703125 
L 7.71875 11.625 
Q 12.109375 9.234375 16.796875 8.0625 
Q 21.484375 6.890625 26.703125 6.890625 
Q 35.15625 6.890625 40.078125 11.328125 
Q 45.015625 15.765625 45.015625 23.390625 
Q 45.015625 31 40.078125 35.4375 
Q 35.15625 39.890625 26.703125 39.890625 
Q 22.75 39.890625 18.8125 39.015625 
Q 14.890625 38.140625 10.796875 36.28125 
z
" id="DejaVuSans-53"/>
      </defs>
      <g style="fill:#4d4d4d;" transform="translate(354.034481 240.596625)scale(0.088 -0.088)">
       <use xlink:href="#DejaVuSans-53"/>
      </g>
     </g>
    </g>
    <g id="xtick_6">
     <g id="line2d_11">
      <path clip-path="url(#p78957538b2)" d="M 49.693396 228.96 
L 49.693396 7.2 
" style="fill:none;stroke:#ffffff;stroke-width:0.5;"/>
     </g>
    </g>
    <g id="xtick_7">
     <g id="line2d_12">
      <path clip-path="url(#p78957538b2)" d="M 117.94686 228.96 
L 117.94686 7.2 
" style="fill:none;stroke:#ffffff;stroke-width:0.5;"/>
     </g>
    </g>
    <g id="xtick_8">
     <g id="line2d_13">
      <path clip-path="url(#p78957538b2)" d="M 186.200323 228.96 
L 186.200323 7.2 
" style="fill:none;stroke:#ffffff;stroke-width:0.5;"/>
     </g>
    </g>
    <g id="xtick_9">
     <g id="line2d_14">
      <path clip-path="url(#p78957538b2)" d="M 254.453786 228.96 
L 254.453786 7.2 
" style="fill:none;stroke:#ffffff;stroke-width:0.5;"/>
     </g>
    </g>
    <g id="xtick_10">
     <g id="line2d_15">
      <path clip-path="url(#p78957538b2)" d="M 322.707249 228.96 
L 322.707249 7.2 
" style="fill:none;stroke:#ffffff;stroke-width:0.5;"/>
     </g>
    </g>
    <g id="text_6">
     <!-- RT (s) -->
     <defs>
      <path d="M 44.390625 34.1875 
Q 47.5625 33.109375 50.5625 29.59375 
Q 53.5625 26.078125 56.59375 19.921875 
L 66.609375 0 
L 56 0 
L 46.6875 18.703125 
Q 43.0625 26.03125 39.671875 28.421875 
Q 36.28125 30.8125 30.421875 30.8125 
L 19.671875 30.8125 
L 19.671875 0 
L 9.8125 0 
L 9.8125 72.90625 
L 32.078125 72.90625 
Q 44.578125 72.90625 50.734375 67.671875 
Q 56.890625 62.453125 56.890625 51.90625 
Q 56.890625 45.015625 53.6875 40.46875 
Q 50.484375 35.9375 44.390625 34.1875 
z
M 19.671875 64.796875 
L 19.671875 38.921875 
L 32.078125 38.921875 
Q 39.203125 38.921875 42.84375 42.21875 
Q 46.484375 45.515625 46.484375 51.90625 
Q 46.484375 58.296875 42.84375 61.546875 
Q 39.203125 64.796875 32.078125 64.796875 
z
" id="DejaVuSans-82"/>
      <path d="M -0.296875 72.90625 
L 61.375 72.90625 
L 61.375 64.59375 
L 35.5 64.59375 
L 35.5 0 
L 25.59375 0 
L 25.59375 64.59375 
L -0.296875 64.59375 
z
" id="DejaVuSans-84"/>
      <path id="DejaVuSans-32"/>
      <path d="M 31 75.875 
Q 24.46875 64.65625 21.28125 53.65625 
Q 18.109375 42.671875 18.109375 31.390625 
Q 18.109375 20.125 21.3125 9.0625 
Q 24.515625 -2 31 -13.1875 
L 23.1875 -13.1875 
Q 15.875 -1.703125 12.234375 9.375 
Q 8.59375 20.453125 8.59375 31.390625 
Q 8.59375 42.28125 12.203125 53.3125 
Q 15.828125 64.359375 23.1875 75.875 
z
" id="DejaVuSans-40"/>
      <path d="M 44.28125 53.078125 
L 44.28125 44.578125 
Q 40.484375 46.53125 36.375 47.5 
Q 32.28125 48.484375 27.875 48.484375 
Q 21.1875 48.484375 17.84375 46.4375 
Q 14.5 44.390625 14.5 40.28125 
Q 14.5 37.15625 16.890625 35.375 
Q 19.28125 33.59375 26.515625 31.984375 
L 29.59375 31.296875 
Q 39.15625 29.25 43.1875 25.515625 
Q 47.21875 21.78125 47.21875 15.09375 
Q 47.21875 7.46875 41.1875 3.015625 
Q 35.15625 -1.421875 24.609375 -1.421875 
Q 20.21875 -1.421875 15.453125 -0.5625 
Q 10.6875 0.296875 5.421875 2 
L 5.421875 11.28125 
Q 10.40625 8.6875 15.234375 7.390625 
Q 20.0625 6.109375 24.8125 6.109375 
Q 31.15625 6.109375 34.5625 8.28125 
Q 37.984375 10.453125 37.984375 14.40625 
Q 37.984375 18.0625 35.515625 20.015625 
Q 33.0625 21.96875 24.703125 23.78125 
L 21.578125 24.515625 
Q 13.234375 26.265625 9.515625 29.90625 
Q 5.8125 33.546875 5.8125 39.890625 
Q 5.8125 47.609375 11.28125 51.796875 
Q 16.75 56 26.8125 56 
Q 31.78125 56 36.171875 55.265625 
Q 40.578125 54.546875 44.28125 53.078125 
z
" id="DejaVuSans-115"/>
      <path d="M 8.015625 75.875 
L 15.828125 75.875 
Q 23.140625 64.359375 26.78125 53.3125 
Q 30.421875 42.28125 30.421875 31.390625 
Q 30.421875 20.453125 26.78125 9.375 
Q 23.140625 -1.703125 15.828125 -13.1875 
L 8.015625 -13.1875 
Q 14.5 -2 17.703125 9.0625 
Q 20.90625 20.125 20.90625 31.390625 
Q 20.90625 42.671875 17.703125 53.65625 
Q 14.5 64.65625 8.015625 75.875 
z
" id="DejaVuSans-41"/>
     </defs>
     <g transform="translate(184.314172 255.185031)scale(0.11 -0.11)">
      <use xlink:href="#DejaVuSans-82"/>
      <use x="69.373047" xlink:href="#DejaVuSans-84"/>
      <use x="130.457031" xlink:href="#DejaVuSans-32"/>
      <use x="162.244141" xlink:href="#DejaVuSans-40"/>
      <use x="201.257812" xlink:href="#DejaVuSans-115"/>
      <use x="253.357422" xlink:href="#DejaVuSans-41"/>
     </g>
    </g>
   </g>
   <g id="matplotlib.axis_2">
    <g id="ytick_1">
     <g id="line2d_16">
      <path clip-path="url(#p78957538b2)" d="M 38.393938 218.88 
L 373.193938 218.88 
" style="fill:none;stroke:#ffffff;"/>
     </g>
     <g id="line2d_17">
      <path d="M 38.393938 218.88 
" style="fill:none;stroke:#333333;stroke-width:1.5;"/>
      <defs>
       <path d="M 0 0 
L -2.75 0 
" id="m00063f925a" style="stroke:#333333;"/>
      </defs>
      <g>
       <use style="fill:#333333;stroke:#333333;" x="38.393938" xlink:href="#m00063f925a" y="218.88"/>
      </g>
     </g>
     <g id="text_7">
      <!-- 0 -->
      <defs>
       <path d="M 31.78125 66.40625 
Q 24.171875 66.40625 20.328125 58.90625 
Q 16.5 51.421875 16.5 36.375 
Q 16.5 21.390625 20.328125 13.890625 
Q 24.171875 6.390625 31.78125 6.390625 
Q 39.453125 6.390625 43.28125 13.890625 
Q 47.125 21.390625 47.125 36.375 
Q 47.125 51.421875 43.28125 58.90625 
Q 39.453125 66.40625 31.78125 66.40625 
z
M 31.78125 74.21875 
Q 44.046875 74.21875 50.515625 64.515625 
Q 56.984375 54.828125 56.984375 36.375 
Q 56.984375 17.96875 50.515625 8.265625 
Q 44.046875 -1.421875 31.78125 -1.421875 
Q 19.53125 -1.421875 13.0625 8.265625 
Q 6.59375 17.96875 6.59375 36.375 
Q 6.59375 54.828125 13.0625 64.515625 
Q 19.53125 74.21875 31.78125 74.21875 
z
" id="DejaVuSans-48"/>
      </defs>
      <g style="fill:#4d4d4d;" transform="translate(27.844938 221.30825)scale(0.088 -0.088)">
       <use xlink:href="#DejaVuSans-48"/>
      </g>
     </g>
    </g>
    <g id="ytick_2">
     <g id="line2d_18">
      <path clip-path="url(#p78957538b2)" d="M 38.393938 161.607273 
L 373.193938 161.607273 
" style="fill:none;stroke:#ffffff;"/>
     </g>
     <g id="line2d_19">
      <path d="M 38.393938 161.607273 
" style="fill:none;stroke:#333333;stroke-width:1.5;"/>
      <g>
       <use style="fill:#333333;stroke:#333333;" x="38.393938" xlink:href="#m00063f925a" y="161.607273"/>
      </g>
     </g>
     <g id="text_8">
      <!-- 25 -->
      <g style="fill:#4d4d4d;" transform="translate(22.245938 164.035523)scale(0.088 -0.088)">
       <use xlink:href="#DejaVuSans-50"/>
       <use x="63.623047" xlink:href="#DejaVuSans-53"/>
      </g>
     </g>
    </g>
    <g id="ytick_3">
     <g id="line2d_20">
      <path clip-path="url(#p78957538b2)" d="M 38.393938 104.334545 
L 373.193938 104.334545 
" style="fill:none;stroke:#ffffff;"/>
     </g>
     <g id="line2d_21">
      <path d="M 38.393938 104.334545 
" style="fill:none;stroke:#333333;stroke-width:1.5;"/>
      <g>
       <use style="fill:#333333;stroke:#333333;" x="38.393938" xlink:href="#m00063f925a" y="104.334545"/>
      </g>
     </g>
     <g id="text_9">
      <!-- 50 -->
      <g style="fill:#4d4d4d;" transform="translate(22.245938 106.762795)scale(0.088 -0.088)">
       <use xlink:href="#DejaVuSans-53"/>
       <use x="63.623047" xlink:href="#DejaVuSans-48"/>
      </g>
     </g>
    </g>
    <g id="ytick_4">
     <g id="line2d_22">
      <path clip-path="url(#p78957538b2)" d="M 38.393938 47.061818 
L 373.193938 47.061818 
" style="fill:none;stroke:#ffffff;"/>
     </g>
     <g id="line2d_23">
      <path d="M 38.393938 47.061818 
" style="fill:none;stroke:#333333;stroke-width:1.5;"/>
      <g>
       <use style="fill:#333333;stroke:#333333;" x="38.393938" xlink:href="#m00063f925a" y="47.061818"/>
      </g>
     </g>
     <g id="text_10">
      <!-- 75 -->
      <defs>
       <path d="M 8.203125 72.90625 
L 55.078125 72.90625 
L 55.078125 68.703125 
L 28.609375 0 
L 18.3125 0 
L 43.21875 64.59375 
L 8.203125 64.59375 
z
" id="DejaVuSans-55"/>
      </defs>
      <g style="fill:#4d4d4d;" transform="translate(22.245938 49.490068)scale(0.088 -0.088)">
       <use xlink:href="#DejaVuSans-55"/>
       <use x="63.623047" xlink:href="#DejaVuSans-53"/>
      </g>
     </g>
    </g>
    <g id="ytick_5">
     <g id="line2d_24">
      <path clip-path="url(#p78957538b2)" d="M 38.393938 190.243636 
L 373.193938 190.243636 
" style="fill:none;stroke:#ffffff;stroke-width:0.5;"/>
     </g>
    </g>
    <g id="ytick_6">
     <g id="line2d_25">
      <path clip-path="url(#p78957538b2)" d="M 38.393938 132.970909 
L 373.193938 132.970909 
" style="fill:none;stroke:#ffffff;stroke-width:0.5;"/>
     </g>
    </g>
    <g id="ytick_7">
     <g id="line2d_26">
      <path clip-path="url(#p78957538b2)" d="M 38.393938 75.698182 
L 373.193938 75.698182 
" style="fill:none;stroke:#ffffff;stroke-width:0.5;"/>
     </g>
    </g>
    <g id="ytick_8">
     <g id="line2d_27">
      <path clip-path="url(#p78957538b2)" d="M 38.393938 18.425455 
L 373.193938 18.425455 
" style="fill:none;stroke:#ffffff;stroke-width:0.5;"/>
     </g>
    </g>
    <g id="text_11">
     <!-- count -->
     <defs>
      <path d="M 48.78125 52.59375 
L 48.78125 44.1875 
Q 44.96875 46.296875 41.140625 47.34375 
Q 37.3125 48.390625 33.40625 48.390625 
Q 24.65625 48.390625 19.8125 42.84375 
Q 14.984375 37.3125 14.984375 27.296875 
Q 14.984375 17.28125 19.8125 11.734375 
Q 24.65625 6.203125 33.40625 6.203125 
Q 37.3125 6.203125 41.140625 7.25 
Q 44.96875 8.296875 48.78125 10.40625 
L 48.78125 2.09375 
Q 45.015625 0.34375 40.984375 -0.53125 
Q 36.96875 -1.421875 32.421875 -1.421875 
Q 20.0625 -1.421875 12.78125 6.34375 
Q 5.515625 14.109375 5.515625 27.296875 
Q 5.515625 40.671875 12.859375 48.328125 
Q 20.21875 56 33.015625 56 
Q 37.15625 56 41.109375 55.140625 
Q 45.0625 54.296875 48.78125 52.59375 
z
" id="DejaVuSans-99"/>
      <path d="M 30.609375 48.390625 
Q 23.390625 48.390625 19.1875 42.75 
Q 14.984375 37.109375 14.984375 27.296875 
Q 14.984375 17.484375 19.15625 11.84375 
Q 23.34375 6.203125 30.609375 6.203125 
Q 37.796875 6.203125 41.984375 11.859375 
Q 46.1875 17.53125 46.1875 27.296875 
Q 46.1875 37.015625 41.984375 42.703125 
Q 37.796875 48.390625 30.609375 48.390625 
z
M 30.609375 56 
Q 42.328125 56 49.015625 48.375 
Q 55.71875 40.765625 55.71875 27.296875 
Q 55.71875 13.875 49.015625 6.21875 
Q 42.328125 -1.421875 30.609375 -1.421875 
Q 18.84375 -1.421875 12.171875 6.21875 
Q 5.515625 13.875 5.515625 27.296875 
Q 5.515625 40.765625 12.171875 48.375 
Q 18.84375 56 30.609375 56 
z
" id="DejaVuSans-111"/>
      <path d="M 8.5 21.578125 
L 8.5 54.6875 
L 17.484375 54.6875 
L 17.484375 21.921875 
Q 17.484375 14.15625 20.5 10.265625 
Q 23.53125 6.390625 29.59375 6.390625 
Q 36.859375 6.390625 41.078125 11.03125 
Q 45.3125 15.671875 45.3125 23.6875 
L 45.3125 54.6875 
L 54.296875 54.6875 
L 54.296875 0 
L 45.3125 0 
L 45.3125 8.40625 
Q 42.046875 3.421875 37.71875 1 
Q 33.40625 -1.421875 27.6875 -1.421875 
Q 18.265625 -1.421875 13.375 4.4375 
Q 8.5 10.296875 8.5 21.578125 
z
M 31.109375 56 
z
" id="DejaVuSans-117"/>
      <path d="M 54.890625 33.015625 
L 54.890625 0 
L 45.90625 0 
L 45.90625 32.71875 
Q 45.90625 40.484375 42.875 44.328125 
Q 39.84375 48.1875 33.796875 48.1875 
Q 26.515625 48.1875 22.3125 43.546875 
Q 18.109375 38.921875 18.109375 30.90625 
L 18.109375 0 
L 9.078125 0 
L 9.078125 54.6875 
L 18.109375 54.6875 
L 18.109375 46.1875 
Q 21.34375 51.125 25.703125 53.5625 
Q 30.078125 56 35.796875 56 
Q 45.21875 56 50.046875 50.171875 
Q 54.890625 44.34375 54.890625 33.015625 
z
" id="DejaVuSans-110"/>
      <path d="M 18.3125 70.21875 
L 18.3125 54.6875 
L 36.8125 54.6875 
L 36.8125 47.703125 
L 18.3125 47.703125 
L 18.3125 18.015625 
Q 18.3125 11.328125 20.140625 9.421875 
Q 21.96875 7.515625 27.59375 7.515625 
L 36.8125 7.515625 
L 36.8125 0 
L 27.59375 0 
Q 17.1875 0 13.234375 3.875 
Q 9.28125 7.765625 9.28125 18.015625 
L 9.28125 47.703125 
L 2.6875 47.703125 
L 2.6875 54.6875 
L 9.28125 54.6875 
L 9.28125 70.21875 
z
" id="DejaVuSans-116"/>
     </defs>
     <g transform="translate(15.558281 132.156875)rotate(-90)scale(0.11 -0.11)">
      <use xlink:href="#DejaVuSans-99"/>
      <use x="54.980469" xlink:href="#DejaVuSans-111"/>
      <use x="116.162109" xlink:href="#DejaVuSans-117"/>
      <use x="179.541016" xlink:href="#DejaVuSans-110"/>
      <use x="242.919922" xlink:href="#DejaVuSans-116"/>
     </g>
    </g>
   </g>
   <g id="PolyCollection_1">
    <path clip-path="url(#p78957538b2)" d="M 53.612119 218.88 
L 53.612119 207.425455 
L 64.482249 207.425455 
L 64.482249 218.88 
z
" style="fill:#008000;fill-opacity:0.501961;"/>
    <path clip-path="url(#p78957538b2)" d="M 64.482249 218.88 
L 64.482249 168.48 
L 75.352379 168.48 
L 75.352379 218.88 
z
" style="fill:#008000;fill-opacity:0.501961;"/>
    <path clip-path="url(#p78957538b2)" d="M 75.352379 218.88 
L 75.352379 134.116364 
L 86.222509 134.116364 
L 86.222509 218.88 
z
" style="fill:#008000;fill-opacity:0.501961;"/>
    <path clip-path="url(#p78957538b2)" d="M 86.222509 218.88 
L 86.222509 47.061818 
L 97.092639 47.061818 
L 97.092639 218.88 
z
" style="fill:#008000;fill-opacity:0.501961;"/>
    <path clip-path="url(#p78957538b2)" d="M 97.092639 218.88 
L 97.092639 17.28 
L 107.962769 17.28 
L 107.962769 218.88 
z
" style="fill:#008000;fill-opacity:0.501961;"/>
    <path clip-path="url(#p78957538b2)" d="M 107.962769 218.88 
L 107.962769 88.298182 
L 118.832899 88.298182 
L 118.832899 218.88 
z
" style="fill:#008000;fill-opacity:0.501961;"/>
    <path clip-path="url(#p78957538b2)" d="M 118.832899 218.88 
L 118.832899 118.08 
L 129.703028 118.08 
L 129.703028 218.88 
z
" style="fill:#008000;fill-opacity:0.501961;"/>
    <path clip-path="url(#p78957538b2)" d="M 129.703028 218.88 
L 129.703028 159.316364 
L 140.573158 159.316364 
L 140.573158 218.88 
z
" style="fill:#008000;fill-opacity:0.501961;"/>
    <path clip-path="url(#p78957538b2)" d="M 140.573158 218.88 
L 140.573158 170.770909 
L 151.443288 170.770909 
L 151.443288 218.88 
z
" style="fill:#008000;fill-opacity:0.501961;"/>
    <path clip-path="url(#p78957538b2)" d="M 151.443288 218.88 
L 151.443288 163.898182 
L 162.313418 163.898182 
L 162.313418 218.88 
z
" style="fill:#008000;fill-opacity:0.501961;"/>
    <path clip-path="url(#p78957538b2)" d="M 162.313418 218.88 
L 162.313418 189.098182 
L 173.183548 189.098182 
L 173.183548 218.88 
z
" style="fill:#008000;fill-opacity:0.501961;"/>
    <path clip-path="url(#p78957538b2)" d="M 173.183548 218.88 
L 173.183548 200.552727 
L 184.053678 200.552727 
L 184.053678 218.88 
z
" style="fill:#008000;fill-opacity:0.501961;"/>
    <path clip-path="url(#p78957538b2)" d="M 184.053678 218.88 
L 184.053678 200.552727 
L 194.923808 200.552727 
L 194.923808 218.88 
z
" style="fill:#008000;fill-opacity:0.501961;"/>
    <path clip-path="url(#p78957538b2)" d="M 194.923808 218.88 
L 194.923808 200.552727 
L 205.793937 200.552727 
L 205.793937 218.88 
z
" style="fill:#008000;fill-opacity:0.501961;"/>
    <path clip-path="url(#p78957538b2)" d="M 205.793937 218.88 
L 205.793937 202.843636 
L 216.664067 202.843636 
L 216.664067 218.88 
z
" style="fill:#008000;fill-opacity:0.501961;"/>
    <path clip-path="url(#p78957538b2)" d="M 216.664067 218.88 
L 216.664067 200.552727 
L 227.534197 200.552727 
L 227.534197 218.88 
z
" style="fill:#008000;fill-opacity:0.501961;"/>
    <path clip-path="url(#p78957538b2)" d="M 227.534197 218.88 
L 227.534197 209.716364 
L 238.404327 209.716364 
L 238.404327 218.88 
z
" style="fill:#008000;fill-opacity:0.501961;"/>
    <path clip-path="url(#p78957538b2)" d="M 238.404327 218.88 
L 238.404327 209.716364 
L 249.274457 209.716364 
L 249.274457 218.88 
z
" style="fill:#008000;fill-opacity:0.501961;"/>
    <path clip-path="url(#p78957538b2)" d="M 249.274457 218.88 
L 249.274457 200.552727 
L 260.144587 200.552727 
L 260.144587 218.88 
z
" style="fill:#008000;fill-opacity:0.501961;"/>
    <path clip-path="url(#p78957538b2)" d="M 260.144587 218.88 
L 260.144587 205.134545 
L 271.014717 205.134545 
L 271.014717 218.88 
z
" style="fill:#008000;fill-opacity:0.501961;"/>
    <path clip-path="url(#p78957538b2)" d="M 271.014717 218.88 
L 271.014717 218.88 
L 281.884847 218.88 
L 281.884847 218.88 
z
" style="fill:#008000;fill-opacity:0.501961;"/>
    <path clip-path="url(#p78957538b2)" d="M 281.884847 218.88 
L 281.884847 212.007273 
L 292.754976 212.007273 
L 292.754976 218.88 
z
" style="fill:#008000;fill-opacity:0.501961;"/>
    <path clip-path="url(#p78957538b2)" d="M 292.754976 218.88 
L 292.754976 216.589091 
L 303.625106 216.589091 
L 303.625106 218.88 
z
" style="fill:#008000;fill-opacity:0.501961;"/>
    <path clip-path="url(#p78957538b2)" d="M 303.625106 218.88 
L 303.625106 216.589091 
L 314.495236 216.589091 
L 314.495236 218.88 
z
" style="fill:#008000;fill-opacity:0.501961;"/>
    <path clip-path="url(#p78957538b2)" d="M 314.495236 218.88 
L 314.495236 214.298182 
L 325.365366 214.298182 
L 325.365366 218.88 
z
" style="fill:#008000;fill-opacity:0.501961;"/>
    <path clip-path="url(#p78957538b2)" d="M 325.365366 218.88 
L 325.365366 216.589091 
L 336.235496 216.589091 
L 336.235496 218.88 
z
" style="fill:#008000;fill-opacity:0.501961;"/>
    <path clip-path="url(#p78957538b2)" d="M 336.235496 218.88 
L 336.235496 216.589091 
L 347.105626 216.589091 
L 347.105626 218.88 
z
" style="fill:#008000;fill-opacity:0.501961;"/>
    <path clip-path="url(#p78957538b2)" d="M 347.105626 218.88 
L 347.105626 214.298182 
L 357.975756 214.298182 
L 357.975756 218.88 
z
" style="fill:#008000;fill-opacity:0.501961;"/>
    <path clip-path="url(#p78957538b2)" d="M 53.612119 218.88 
L 53.612119 195.970909 
L 64.482249 195.970909 
L 64.482249 218.88 
z
" style="fill:#ff0000;fill-opacity:0.501961;"/>
    <path clip-path="url(#p78957538b2)" d="M 64.482249 218.88 
L 64.482249 182.225455 
L 75.352379 182.225455 
L 75.352379 218.88 
z
" style="fill:#ff0000;fill-opacity:0.501961;"/>
    <path clip-path="url(#p78957538b2)" d="M 75.352379 218.88 
L 75.352379 154.734545 
L 86.222509 154.734545 
L 86.222509 218.88 
z
" style="fill:#ff0000;fill-opacity:0.501961;"/>
    <path clip-path="url(#p78957538b2)" d="M 86.222509 218.88 
L 86.222509 76.843636 
L 97.092639 76.843636 
L 97.092639 218.88 
z
" style="fill:#ff0000;fill-opacity:0.501961;"/>
    <path clip-path="url(#p78957538b2)" d="M 97.092639 218.88 
L 97.092639 49.352727 
L 107.962769 49.352727 
L 107.962769 218.88 
z
" style="fill:#ff0000;fill-opacity:0.501961;"/>
    <path clip-path="url(#p78957538b2)" d="M 107.962769 218.88 
L 107.962769 74.552727 
L 118.832899 74.552727 
L 118.832899 218.88 
z
" style="fill:#ff0000;fill-opacity:0.501961;"/>
    <path clip-path="url(#p78957538b2)" d="M 118.832899 218.88 
L 118.832899 104.334545 
L 129.703028 104.334545 
L 129.703028 218.88 
z
" style="fill:#ff0000;fill-opacity:0.501961;"/>
    <path clip-path="url(#p78957538b2)" d="M 129.703028 218.88 
L 129.703028 140.989091 
L 140.573158 140.989091 
L 140.573158 218.88 
z
" style="fill:#ff0000;fill-opacity:0.501961;"/>
    <path clip-path="url(#p78957538b2)" d="M 140.573158 218.88 
L 140.573158 145.570909 
L 151.443288 145.570909 
L 151.443288 218.88 
z
" style="fill:#ff0000;fill-opacity:0.501961;"/>
    <path clip-path="url(#p78957538b2)" d="M 151.443288 218.88 
L 151.443288 166.189091 
L 162.313418 166.189091 
L 162.313418 218.88 
z
" style="fill:#ff0000;fill-opacity:0.501961;"/>
    <path clip-path="url(#p78957538b2)" d="M 162.313418 218.88 
L 162.313418 173.061818 
L 173.183548 173.061818 
L 173.183548 218.88 
z
" style="fill:#ff0000;fill-opacity:0.501961;"/>
    <path clip-path="url(#p78957538b2)" d="M 173.183548 218.88 
L 173.183548 175.352727 
L 184.053678 175.352727 
L 184.053678 218.88 
z
" style="fill:#ff0000;fill-opacity:0.501961;"/>
    <path clip-path="url(#p78957538b2)" d="M 184.053678 218.88 
L 184.053678 189.098182 
L 194.923808 189.098182 
L 194.923808 218.88 
z
" style="fill:#ff0000;fill-opacity:0.501961;"/>
    <path clip-path="url(#p78957538b2)" d="M 194.923808 218.88 
L 194.923808 189.098182 
L 205.793937 189.098182 
L 205.793937 218.88 
z
" style="fill:#ff0000;fill-opacity:0.501961;"/>
    <path clip-path="url(#p78957538b2)" d="M 205.793937 218.88 
L 205.793937 207.425455 
L 216.664067 207.425455 
L 216.664067 218.88 
z
" style="fill:#ff0000;fill-opacity:0.501961;"/>
    <path clip-path="url(#p78957538b2)" d="M 216.664067 218.88 
L 216.664067 195.970909 
L 227.534197 195.970909 
L 227.534197 218.88 
z
" style="fill:#ff0000;fill-opacity:0.501961;"/>
    <path clip-path="url(#p78957538b2)" d="M 227.534197 218.88 
L 227.534197 202.843636 
L 238.404327 202.843636 
L 238.404327 218.88 
z
" style="fill:#ff0000;fill-opacity:0.501961;"/>
    <path clip-path="url(#p78957538b2)" d="M 238.404327 218.88 
L 238.404327 218.88 
L 249.274457 218.88 
L 249.274457 218.88 
z
" style="fill:#ff0000;fill-opacity:0.501961;"/>
    <path clip-path="url(#p78957538b2)" d="M 249.274457 218.88 
L 249.274457 214.298182 
L 260.144587 214.298182 
L 260.144587 218.88 
z
" style="fill:#ff0000;fill-opacity:0.501961;"/>
    <path clip-path="url(#p78957538b2)" d="M 260.144587 218.88 
L 260.144587 209.716364 
L 271.014717 209.716364 
L 271.014717 218.88 
z
" style="fill:#ff0000;fill-opacity:0.501961;"/>
    <path clip-path="url(#p78957538b2)" d="M 271.014717 218.88 
L 271.014717 212.007273 
L 281.884847 212.007273 
L 281.884847 218.88 
z
" style="fill:#ff0000;fill-opacity:0.501961;"/>
    <path clip-path="url(#p78957538b2)" d="M 281.884847 218.88 
L 281.884847 212.007273 
L 292.754976 212.007273 
L 292.754976 218.88 
z
" style="fill:#ff0000;fill-opacity:0.501961;"/>
    <path clip-path="url(#p78957538b2)" d="M 292.754976 218.88 
L 292.754976 218.88 
L 303.625106 218.88 
L 303.625106 218.88 
z
" style="fill:#ff0000;fill-opacity:0.501961;"/>
    <path clip-path="url(#p78957538b2)" d="M 303.625106 218.88 
L 303.625106 216.589091 
L 314.495236 216.589091 
L 314.495236 218.88 
z
" style="fill:#ff0000;fill-opacity:0.501961;"/>
    <path clip-path="url(#p78957538b2)" d="M 314.495236 218.88 
L 314.495236 218.88 
L 325.365366 218.88 
L 325.365366 218.88 
z
" style="fill:#ff0000;fill-opacity:0.501961;"/>
    <path clip-path="url(#p78957538b2)" d="M 325.365366 218.88 
L 325.365366 216.589091 
L 336.235496 216.589091 
L 336.235496 218.88 
z
" style="fill:#ff0000;fill-opacity:0.501961;"/>
    <path clip-path="url(#p78957538b2)" d="M 336.235496 218.88 
L 336.235496 216.589091 
L 347.105626 216.589091 
L 347.105626 218.88 
z
" style="fill:#ff0000;fill-opacity:0.501961;"/>
    <path clip-path="url(#p78957538b2)" d="M 347.105626 218.88 
L 347.105626 216.589091 
L 357.975756 216.589091 
L 357.975756 218.88 
z
" style="fill:#ff0000;fill-opacity:0.501961;"/>
   </g>
   <g id="patch_3">
    <path d="M 380.393938 153.202969 
L 455.653469 153.202969 
L 455.653469 80.077031 
L 380.393938 80.077031 
z
" style="fill:#ffffff;"/>
   </g>
   <g id="text_12">
    <!-- condition -->
    <defs>
     <path d="M 45.40625 46.390625 
L 45.40625 75.984375 
L 54.390625 75.984375 
L 54.390625 0 
L 45.40625 0 
L 45.40625 8.203125 
Q 42.578125 3.328125 38.25 0.953125 
Q 33.9375 -1.421875 27.875 -1.421875 
Q 17.96875 -1.421875 11.734375 6.484375 
Q 5.515625 14.40625 5.515625 27.296875 
Q 5.515625 40.1875 11.734375 48.09375 
Q 17.96875 56 27.875 56 
Q 33.9375 56 38.25 53.625 
Q 42.578125 51.265625 45.40625 46.390625 
z
M 14.796875 27.296875 
Q 14.796875 17.390625 18.875 11.75 
Q 22.953125 6.109375 30.078125 6.109375 
Q 37.203125 6.109375 41.296875 11.75 
Q 45.40625 17.390625 45.40625 27.296875 
Q 45.40625 37.203125 41.296875 42.84375 
Q 37.203125 48.484375 30.078125 48.484375 
Q 22.953125 48.484375 18.875 42.84375 
Q 14.796875 37.203125 14.796875 27.296875 
z
" id="DejaVuSans-100"/>
     <path d="M 9.421875 54.6875 
L 18.40625 54.6875 
L 18.40625 0 
L 9.421875 0 
z
M 9.421875 75.984375 
L 18.40625 75.984375 
L 18.40625 64.59375 
L 9.421875 64.59375 
z
" id="DejaVuSans-105"/>
    </defs>
    <g transform="translate(392.593938 103.670625)scale(0.11 -0.11)">
     <use xlink:href="#DejaVuSans-99"/>
     <use x="54.980469" xlink:href="#DejaVuSans-111"/>
     <use x="116.162109" xlink:href="#DejaVuSans-110"/>
     <use x="179.541016" xlink:href="#DejaVuSans-100"/>
     <use x="243.017578" xlink:href="#DejaVuSans-105"/>
     <use x="270.800781" xlink:href="#DejaVuSans-116"/>
     <use x="310.009766" xlink:href="#DejaVuSans-105"/>
     <use x="337.792969" xlink:href="#DejaVuSans-111"/>
     <use x="398.974609" xlink:href="#DejaVuSans-110"/>
    </g>
   </g>
   <g id="patch_4">
    <path clip-path="url(#p98ab6824cc)" d="M 392.593938 123.162969 
L 408.433938 123.162969 
L 408.433938 107.322969 
L 392.593938 107.322969 
z
" style="fill:#f2f2f2;"/>
   </g>
   <g id="patch_5">
    <path clip-path="url(#p98ab6824cc)" d="M 392.593938 123.162969 
L 408.433938 123.162969 
L 408.433938 107.322969 
L 392.593938 107.322969 
z
" style="fill:#008000;fill-opacity:0.501961;"/>
   </g>
   <g id="text_13">
    <!-- G -->
    <defs>
     <path d="M 59.515625 10.40625 
L 59.515625 29.984375 
L 43.40625 29.984375 
L 43.40625 38.09375 
L 69.28125 38.09375 
L 69.28125 6.78125 
Q 63.578125 2.734375 56.6875 0.65625 
Q 49.8125 -1.421875 42 -1.421875 
Q 24.90625 -1.421875 15.25 8.5625 
Q 5.609375 18.5625 5.609375 36.375 
Q 5.609375 54.25 15.25 64.234375 
Q 24.90625 74.21875 42 74.21875 
Q 49.125 74.21875 55.546875 72.453125 
Q 61.96875 70.703125 67.390625 67.28125 
L 67.390625 56.78125 
Q 61.921875 61.421875 55.765625 63.765625 
Q 49.609375 66.109375 42.828125 66.109375 
Q 29.4375 66.109375 22.71875 58.640625 
Q 16.015625 51.171875 16.015625 36.375 
Q 16.015625 21.625 22.71875 14.15625 
Q 29.4375 6.6875 42.828125 6.6875 
Q 48.046875 6.6875 52.140625 7.59375 
Q 56.25 8.5 59.515625 10.40625 
z
" id="DejaVuSans-71"/>
    </defs>
    <g transform="translate(411.433938 117.671219)scale(0.088 -0.088)">
     <use xlink:href="#DejaVuSans-71"/>
    </g>
   </g>
   <g id="patch_6">
    <path clip-path="url(#p3a629bdecc)" d="M 392.593938 141.002969 
L 408.433938 141.002969 
L 408.433938 125.162969 
L 392.593938 125.162969 
z
" style="fill:#f2f2f2;"/>
   </g>
   <g id="patch_7">
    <path clip-path="url(#p3a629bdecc)" d="M 392.593938 141.002969 
L 408.433938 141.002969 
L 408.433938 125.162969 
L 392.593938 125.162969 
z
" style="fill:#ff0000;fill-opacity:0.501961;"/>
   </g>
   <g id="text_14">
    <!-- S -->
    <defs>
     <path d="M 53.515625 70.515625 
L 53.515625 60.890625 
Q 47.90625 63.578125 42.921875 64.890625 
Q 37.9375 66.21875 33.296875 66.21875 
Q 25.25 66.21875 20.875 63.09375 
Q 16.5 59.96875 16.5 54.203125 
Q 16.5 49.359375 19.40625 46.890625 
Q 22.3125 44.4375 30.421875 42.921875 
L 36.375 41.703125 
Q 47.40625 39.59375 52.65625 34.296875 
Q 57.90625 29 57.90625 20.125 
Q 57.90625 9.515625 50.796875 4.046875 
Q 43.703125 -1.421875 29.984375 -1.421875 
Q 24.8125 -1.421875 18.96875 -0.25 
Q 13.140625 0.921875 6.890625 3.21875 
L 6.890625 13.375 
Q 12.890625 10.015625 18.65625 8.296875 
Q 24.421875 6.59375 29.984375 6.59375 
Q 38.421875 6.59375 43.015625 9.90625 
Q 47.609375 13.234375 47.609375 19.390625 
Q 47.609375 24.75 44.3125 27.78125 
Q 41.015625 30.8125 33.5 32.328125 
L 27.484375 33.5 
Q 16.453125 35.6875 11.515625 40.375 
Q 6.59375 45.0625 6.59375 53.421875 
Q 6.59375 63.09375 13.40625 68.65625 
Q 20.21875 74.21875 32.171875 74.21875 
Q 37.3125 74.21875 42.625 73.28125 
Q 47.953125 72.359375 53.515625 70.515625 
z
" id="DejaVuSans-83"/>
    </defs>
    <g transform="translate(411.433938 135.511219)scale(0.088 -0.088)">
     <use xlink:href="#DejaVuSans-83"/>
    </g>
   </g>
  </g>
 </g>
 <defs>
  <clipPath id="p78957538b2">
   <rect height="221.76" width="334.8" x="38.393938" y="7.2"/>
  </clipPath>
  <clipPath id="p98ab6824cc">
   <path d="M 392.593938 123.162969 
L 392.593938 107.322969 
L 408.433938 107.322969 
L 408.433938 123.162969 
"/>
  </clipPath>
  <clipPath id="p3a629bdecc">
   <path d="M 392.593938 141.002969 
L 392.593938 125.162969 
L 408.433938 125.162969 
L 408.433938 141.002969 
"/>
  </clipPath>
 </defs>
</svg>
