<?xml version="1.0" encoding="utf-8" standalone="no"?>
<!DOCTYPE svg PUBLIC "-//W3C//DTD SVG 1.1//EN"
  "http://www.w3.org/Graphics/SVG/1.1/DTD/svg11.dtd">
<!-- Created with matplotlib (https://matplotlib.org/) -->
<svg height="264.672687pt" version="1.1" viewBox="0 0 385.992937 264.672687" width="385.992937pt" xmlns="http://www.w3.org/2000/svg" xmlns:xlink="http://www.w3.org/1999/xlink">
 <defs>
  <style type="text/css">
*{stroke-linecap:butt;stroke-linejoin:round;}
  </style>
 </defs>
 <g id="figure_1">
  <g id="patch_1">
   <path d="M 0 264.672687 
L 385.992937 264.672687 
L 385.992937 0 
L 0 0 
z
" style="fill:#ffffff;stroke:#ffffff;stroke-linejoin:miter;"/>
  </g>
  <g id="axes_1">
   <g id="patch_2">
    <path d="M 43.992938 228.96 
L 378.792937 228.96 
L 378.792937 7.2 
L 43.992938 7.2 
z
" style="fill:#ebebeb;"/>
   </g>
   <g id="matplotlib.axis_1">
    <g id="xtick_1">
     <g id="line2d_1">
      <path clip-path="url(#p2d26842055)" d="M 55.491119 228.96 
L 55.491119 7.2 
" style="fill:none;stroke:#ffffff;"/>
     </g>
     <g id="line2d_2">
      <path d="M 55.491119 228.96 
" style="fill:none;stroke:#333333;stroke-width:1.5;"/>
      <defs>
       <path d="M 0 0 
L 0 2.75 
" id="mc9220ba8de" style="stroke:#333333;"/>
      </defs>
      <g>
       <use style="fill:#333333;stroke:#333333;" x="55.491119" xlink:href="#mc9220ba8de" y="228.96"/>
      </g>
     </g>
     <g id="text_1">
      <!-- 0 -->
      <defs>
       <path d="M 31.78125 66.40625 
Q 24.171875 66.40625 20.328125 58.90625 
Q 16.5 51.421875 16.5 36.375 
Q 16.5 21.390625 20.328125 13.890625 
Q 24.171875 6.390625 31.78125 6.390625 
Q 39.453125 6.390625 43.28125 13.890625 
Q 47.125 21.390625 47.125 36.375 
Q 47.125 51.421875 43.28125 58.90625 
Q 39.453125 66.40625 31.78125 66.40625 
z
M 31.78125 74.21875 
Q 44.046875 74.21875 50.515625 64.515625 
Q 56.984375 54.828125 56.984375 36.375 
Q 56.984375 17.96875 50.515625 8.265625 
Q 44.046875 -1.421875 31.78125 -1.421875 
Q 19.53125 -1.421875 13.0625 8.265625 
Q 6.59375 17.96875 6.59375 36.375 
Q 6.59375 54.828125 13.0625 64.515625 
Q 19.53125 74.21875 31.78125 74.21875 
z
" id="DejaVuSans-48"/>
      </defs>
      <g style="fill:#4d4d4d;" transform="translate(52.691619 240.596625)scale(0.088 -0.088)">
       <use xlink:href="#DejaVuSans-48"/>
      </g>
     </g>
    </g>
    <g id="xtick_2">
     <g id="line2d_3">
      <path clip-path="url(#p2d26842055)" d="M 123.127483 228.96 
L 123.127483 7.2 
" style="fill:none;stroke:#ffffff;"/>
     </g>
     <g id="line2d_4">
      <path d="M 123.127483 228.96 
" style="fill:none;stroke:#333333;stroke-width:1.5;"/>
      <g>
       <use style="fill:#333333;stroke:#333333;" x="123.127483" xlink:href="#mc9220ba8de" y="228.96"/>
      </g>
     </g>
     <g id="text_2">
      <!-- 10 -->
      <defs>
       <path d="M 12.40625 8.296875 
L 28.515625 8.296875 
L 28.515625 63.921875 
L 10.984375 60.40625 
L 10.984375 69.390625 
L 28.421875 72.90625 
L 38.28125 72.90625 
L 38.28125 8.296875 
L 54.390625 8.296875 
L 54.390625 0 
L 12.40625 0 
z
" id="DejaVuSans-49"/>
      </defs>
      <g style="fill:#4d4d4d;" transform="translate(117.528483 240.596625)scale(0.088 -0.088)">
       <use xlink:href="#DejaVuSans-49"/>
       <use x="63.623047" xlink:href="#DejaVuSans-48"/>
      </g>
     </g>
    </g>
    <g id="xtick_3">
     <g id="line2d_5">
      <path clip-path="url(#p2d26842055)" d="M 190.763847 228.96 
L 190.763847 7.2 
" style="fill:none;stroke:#ffffff;"/>
     </g>
     <g id="line2d_6">
      <path d="M 190.763847 228.96 
" style="fill:none;stroke:#333333;stroke-width:1.5;"/>
      <g>
       <use style="fill:#333333;stroke:#333333;" x="190.763847" xlink:href="#mc9220ba8de" y="228.96"/>
      </g>
     </g>
     <g id="text_3">
      <!-- 20 -->
      <defs>
       <path d="M 19.1875 8.296875 
L 53.609375 8.296875 
L 53.609375 0 
L 7.328125 0 
L 7.328125 8.296875 
Q 12.9375 14.109375 22.625 23.890625 
Q 32.328125 33.6875 34.8125 36.53125 
Q 39.546875 41.84375 41.421875 45.53125 
Q 43.3125 49.21875 43.3125 52.78125 
Q 43.3125 58.59375 39.234375 62.25 
Q 35.15625 65.921875 28.609375 65.921875 
Q 23.96875 65.921875 18.8125 64.3125 
Q 13.671875 62.703125 7.8125 59.421875 
L 7.8125 69.390625 
Q 13.765625 71.78125 18.9375 73 
Q 24.125 74.21875 28.421875 74.21875 
Q 39.75 74.21875 46.484375 68.546875 
Q 53.21875 62.890625 53.21875 53.421875 
Q 53.21875 48.921875 51.53125 44.890625 
Q 49.859375 40.875 45.40625 35.40625 
Q 44.1875 33.984375 37.640625 27.21875 
Q 31.109375 20.453125 19.1875 8.296875 
z
" id="DejaVuSans-50"/>
      </defs>
      <g style="fill:#4d4d4d;" transform="translate(185.164847 240.596625)scale(0.088 -0.088)">
       <use xlink:href="#DejaVuSans-50"/>
       <use x="63.623047" xlink:href="#DejaVuSans-48"/>
      </g>
     </g>
    </g>
    <g id="xtick_4">
     <g id="line2d_7">
      <path clip-path="url(#p2d26842055)" d="M 258.40021 228.96 
L 258.40021 7.2 
" style="fill:none;stroke:#ffffff;"/>
     </g>
     <g id="line2d_8">
      <path d="M 258.40021 228.96 
" style="fill:none;stroke:#333333;stroke-width:1.5;"/>
      <g>
       <use style="fill:#333333;stroke:#333333;" x="258.40021" xlink:href="#mc9220ba8de" y="228.96"/>
      </g>
     </g>
     <g id="text_4">
      <!-- 30 -->
      <defs>
       <path d="M 40.578125 39.3125 
Q 47.65625 37.796875 51.625 33 
Q 55.609375 28.21875 55.609375 21.1875 
Q 55.609375 10.40625 48.1875 4.484375 
Q 40.765625 -1.421875 27.09375 -1.421875 
Q 22.515625 -1.421875 17.65625 -0.515625 
Q 12.796875 0.390625 7.625 2.203125 
L 7.625 11.71875 
Q 11.71875 9.328125 16.59375 8.109375 
Q 21.484375 6.890625 26.8125 6.890625 
Q 36.078125 6.890625 40.9375 10.546875 
Q 45.796875 14.203125 45.796875 21.1875 
Q 45.796875 27.640625 41.28125 31.265625 
Q 36.765625 34.90625 28.71875 34.90625 
L 20.21875 34.90625 
L 20.21875 43.015625 
L 29.109375 43.015625 
Q 36.375 43.015625 40.234375 45.921875 
Q 44.09375 48.828125 44.09375 54.296875 
Q 44.09375 59.90625 40.109375 62.90625 
Q 36.140625 65.921875 28.71875 65.921875 
Q 24.65625 65.921875 20.015625 65.03125 
Q 15.375 64.15625 9.8125 62.3125 
L 9.8125 71.09375 
Q 15.4375 72.65625 20.34375 73.4375 
Q 25.25 74.21875 29.59375 74.21875 
Q 40.828125 74.21875 47.359375 69.109375 
Q 53.90625 64.015625 53.90625 55.328125 
Q 53.90625 49.265625 50.4375 45.09375 
Q 46.96875 40.921875 40.578125 39.3125 
z
" id="DejaVuSans-51"/>
      </defs>
      <g style="fill:#4d4d4d;" transform="translate(252.80121 240.596625)scale(0.088 -0.088)">
       <use xlink:href="#DejaVuSans-51"/>
       <use x="63.623047" xlink:href="#DejaVuSans-48"/>
      </g>
     </g>
    </g>
    <g id="xtick_5">
     <g id="line2d_9">
      <path clip-path="url(#p2d26842055)" d="M 326.036574 228.96 
L 326.036574 7.2 
" style="fill:none;stroke:#ffffff;"/>
     </g>
     <g id="line2d_10">
      <path d="M 326.036574 228.96 
" style="fill:none;stroke:#333333;stroke-width:1.5;"/>
      <g>
       <use style="fill:#333333;stroke:#333333;" x="326.036574" xlink:href="#mc9220ba8de" y="228.96"/>
      </g>
     </g>
     <g id="text_5">
      <!-- 40 -->
      <defs>
       <path d="M 37.796875 64.3125 
L 12.890625 25.390625 
L 37.796875 25.390625 
z
M 35.203125 72.90625 
L 47.609375 72.90625 
L 47.609375 25.390625 
L 58.015625 25.390625 
L 58.015625 17.1875 
L 47.609375 17.1875 
L 47.609375 0 
L 37.796875 0 
L 37.796875 17.1875 
L 4.890625 17.1875 
L 4.890625 26.703125 
z
" id="DejaVuSans-52"/>
      </defs>
      <g style="fill:#4d4d4d;" transform="translate(320.437574 240.596625)scale(0.088 -0.088)">
       <use xlink:href="#DejaVuSans-52"/>
       <use x="63.623047" xlink:href="#DejaVuSans-48"/>
      </g>
     </g>
    </g>
    <g id="xtick_6">
     <g id="line2d_11">
      <path clip-path="url(#p2d26842055)" d="M 89.309301 228.96 
L 89.309301 7.2 
" style="fill:none;stroke:#ffffff;stroke-width:0.5;"/>
     </g>
    </g>
    <g id="xtick_7">
     <g id="line2d_12">
      <path clip-path="url(#p2d26842055)" d="M 156.945665 228.96 
L 156.945665 7.2 
" style="fill:none;stroke:#ffffff;stroke-width:0.5;"/>
     </g>
    </g>
    <g id="xtick_8">
     <g id="line2d_13">
      <path clip-path="url(#p2d26842055)" d="M 224.582028 228.96 
L 224.582028 7.2 
" style="fill:none;stroke:#ffffff;stroke-width:0.5;"/>
     </g>
    </g>
    <g id="xtick_9">
     <g id="line2d_14">
      <path clip-path="url(#p2d26842055)" d="M 292.218392 228.96 
L 292.218392 7.2 
" style="fill:none;stroke:#ffffff;stroke-width:0.5;"/>
     </g>
    </g>
    <g id="xtick_10">
     <g id="line2d_15">
      <path clip-path="url(#p2d26842055)" d="M 359.854756 228.96 
L 359.854756 7.2 
" style="fill:none;stroke:#ffffff;stroke-width:0.5;"/>
     </g>
    </g>
    <g id="text_6">
     <!-- RT (s) -->
     <defs>
      <path d="M 44.390625 34.1875 
Q 47.5625 33.109375 50.5625 29.59375 
Q 53.5625 26.078125 56.59375 19.921875 
L 66.609375 0 
L 56 0 
L 46.6875 18.703125 
Q 43.0625 26.03125 39.671875 28.421875 
Q 36.28125 30.8125 30.421875 30.8125 
L 19.671875 30.8125 
L 19.671875 0 
L 9.8125 0 
L 9.8125 72.90625 
L 32.078125 72.90625 
Q 44.578125 72.90625 50.734375 67.671875 
Q 56.890625 62.453125 56.890625 51.90625 
Q 56.890625 45.015625 53.6875 40.46875 
Q 50.484375 35.9375 44.390625 34.1875 
z
M 19.671875 64.796875 
L 19.671875 38.921875 
L 32.078125 38.921875 
Q 39.203125 38.921875 42.84375 42.21875 
Q 46.484375 45.515625 46.484375 51.90625 
Q 46.484375 58.296875 42.84375 61.546875 
Q 39.203125 64.796875 32.078125 64.796875 
z
" id="DejaVuSans-82"/>
      <path d="M -0.296875 72.90625 
L 61.375 72.90625 
L 61.375 64.59375 
L 35.5 64.59375 
L 35.5 0 
L 25.59375 0 
L 25.59375 64.59375 
L -0.296875 64.59375 
z
" id="DejaVuSans-84"/>
      <path id="DejaVuSans-32"/>
      <path d="M 31 75.875 
Q 24.46875 64.65625 21.28125 53.65625 
Q 18.109375 42.671875 18.109375 31.390625 
Q 18.109375 20.125 21.3125 9.0625 
Q 24.515625 -2 31 -13.1875 
L 23.1875 -13.1875 
Q 15.875 -1.703125 12.234375 9.375 
Q 8.59375 20.453125 8.59375 31.390625 
Q 8.59375 42.28125 12.203125 53.3125 
Q 15.828125 64.359375 23.1875 75.875 
z
" id="DejaVuSans-40"/>
      <path d="M 44.28125 53.078125 
L 44.28125 44.578125 
Q 40.484375 46.53125 36.375 47.5 
Q 32.28125 48.484375 27.875 48.484375 
Q 21.1875 48.484375 17.84375 46.4375 
Q 14.5 44.390625 14.5 40.28125 
Q 14.5 37.15625 16.890625 35.375 
Q 19.28125 33.59375 26.515625 31.984375 
L 29.59375 31.296875 
Q 39.15625 29.25 43.1875 25.515625 
Q 47.21875 21.78125 47.21875 15.09375 
Q 47.21875 7.46875 41.1875 3.015625 
Q 35.15625 -1.421875 24.609375 -1.421875 
Q 20.21875 -1.421875 15.453125 -0.5625 
Q 10.6875 0.296875 5.421875 2 
L 5.421875 11.28125 
Q 10.40625 8.6875 15.234375 7.390625 
Q 20.0625 6.109375 24.8125 6.109375 
Q 31.15625 6.109375 34.5625 8.28125 
Q 37.984375 10.453125 37.984375 14.40625 
Q 37.984375 18.0625 35.515625 20.015625 
Q 33.0625 21.96875 24.703125 23.78125 
L 21.578125 24.515625 
Q 13.234375 26.265625 9.515625 29.90625 
Q 5.8125 33.546875 5.8125 39.890625 
Q 5.8125 47.609375 11.28125 51.796875 
Q 16.75 56 26.8125 56 
Q 31.78125 56 36.171875 55.265625 
Q 40.578125 54.546875 44.28125 53.078125 
z
" id="DejaVuSans-115"/>
      <path d="M 8.015625 75.875 
L 15.828125 75.875 
Q 23.140625 64.359375 26.78125 53.3125 
Q 30.421875 42.28125 30.421875 31.390625 
Q 30.421875 20.453125 26.78125 9.375 
Q 23.140625 -1.703125 15.828125 -13.1875 
L 8.015625 -13.1875 
Q 14.5 -2 17.703125 9.0625 
Q 20.90625 20.125 20.90625 31.390625 
Q 20.90625 42.671875 17.703125 53.65625 
Q 14.5 64.65625 8.015625 75.875 
z
" id="DejaVuSans-41"/>
     </defs>
     <g transform="translate(189.913172 255.185031)scale(0.11 -0.11)">
      <use xlink:href="#DejaVuSans-82"/>
      <use x="69.373047" xlink:href="#DejaVuSans-84"/>
      <use x="130.457031" xlink:href="#DejaVuSans-32"/>
      <use x="162.244141" xlink:href="#DejaVuSans-40"/>
      <use x="201.257812" xlink:href="#DejaVuSans-115"/>
      <use x="253.357422" xlink:href="#DejaVuSans-41"/>
     </g>
    </g>
   </g>
   <g id="matplotlib.axis_2">
    <g id="ytick_1">
     <g id="line2d_16">
      <path clip-path="url(#p2d26842055)" d="M 43.992938 218.88 
L 378.792937 218.88 
" style="fill:none;stroke:#ffffff;"/>
     </g>
     <g id="line2d_17">
      <path d="M 43.992938 218.88 
" style="fill:none;stroke:#333333;stroke-width:1.5;"/>
      <defs>
       <path d="M 0 0 
L -2.75 0 
" id="m73625c5682" style="stroke:#333333;"/>
      </defs>
      <g>
       <use style="fill:#333333;stroke:#333333;" x="43.992938" xlink:href="#m73625c5682" y="218.88"/>
      </g>
     </g>
     <g id="text_7">
      <!-- 0 -->
      <g style="fill:#4d4d4d;" transform="translate(33.443938 221.30825)scale(0.088 -0.088)">
       <use xlink:href="#DejaVuSans-48"/>
      </g>
     </g>
    </g>
    <g id="ytick_2">
     <g id="line2d_18">
      <path clip-path="url(#p2d26842055)" d="M 43.992938 170.88 
L 378.792937 170.88 
" style="fill:none;stroke:#ffffff;"/>
     </g>
     <g id="line2d_19">
      <path d="M 43.992938 170.88 
" style="fill:none;stroke:#333333;stroke-width:1.5;"/>
      <g>
       <use style="fill:#333333;stroke:#333333;" x="43.992938" xlink:href="#m73625c5682" y="170.88"/>
      </g>
     </g>
     <g id="text_8">
      <!-- 25 -->
      <defs>
       <path d="M 10.796875 72.90625 
L 49.515625 72.90625 
L 49.515625 64.59375 
L 19.828125 64.59375 
L 19.828125 46.734375 
Q 21.96875 47.46875 24.109375 47.828125 
Q 26.265625 48.1875 28.421875 48.1875 
Q 40.625 48.1875 47.75 41.5 
Q 54.890625 34.8125 54.890625 23.390625 
Q 54.890625 11.625 47.5625 5.09375 
Q 40.234375 -1.421875 26.90625 -1.421875 
Q 22.3125 -1.421875 17.546875 -0.640625 
Q 12.796875 0.140625 7.71875 1.703125 
L 7.71875 11.625 
Q 12.109375 9.234375 16.796875 8.0625 
Q 21.484375 6.890625 26.703125 6.890625 
Q 35.15625 6.890625 40.078125 11.328125 
Q 45.015625 15.765625 45.015625 23.390625 
Q 45.015625 31 40.078125 35.4375 
Q 35.15625 39.890625 26.703125 39.890625 
Q 22.75 39.890625 18.8125 39.015625 
Q 14.890625 38.140625 10.796875 36.28125 
z
" id="DejaVuSans-53"/>
      </defs>
      <g style="fill:#4d4d4d;" transform="translate(27.844938 173.30825)scale(0.088 -0.088)">
       <use xlink:href="#DejaVuSans-50"/>
       <use x="63.623047" xlink:href="#DejaVuSans-53"/>
      </g>
     </g>
    </g>
    <g id="ytick_3">
     <g id="line2d_20">
      <path clip-path="url(#p2d26842055)" d="M 43.992938 122.88 
L 378.792937 122.88 
" style="fill:none;stroke:#ffffff;"/>
     </g>
     <g id="line2d_21">
      <path d="M 43.992938 122.88 
" style="fill:none;stroke:#333333;stroke-width:1.5;"/>
      <g>
       <use style="fill:#333333;stroke:#333333;" x="43.992938" xlink:href="#m73625c5682" y="122.88"/>
      </g>
     </g>
     <g id="text_9">
      <!-- 50 -->
      <g style="fill:#4d4d4d;" transform="translate(27.844938 125.30825)scale(0.088 -0.088)">
       <use xlink:href="#DejaVuSans-53"/>
       <use x="63.623047" xlink:href="#DejaVuSans-48"/>
      </g>
     </g>
    </g>
    <g id="ytick_4">
     <g id="line2d_22">
      <path clip-path="url(#p2d26842055)" d="M 43.992938 74.88 
L 378.792937 74.88 
" style="fill:none;stroke:#ffffff;"/>
     </g>
     <g id="line2d_23">
      <path d="M 43.992938 74.88 
" style="fill:none;stroke:#333333;stroke-width:1.5;"/>
      <g>
       <use style="fill:#333333;stroke:#333333;" x="43.992938" xlink:href="#m73625c5682" y="74.88"/>
      </g>
     </g>
     <g id="text_10">
      <!-- 75 -->
      <defs>
       <path d="M 8.203125 72.90625 
L 55.078125 72.90625 
L 55.078125 68.703125 
L 28.609375 0 
L 18.3125 0 
L 43.21875 64.59375 
L 8.203125 64.59375 
z
" id="DejaVuSans-55"/>
      </defs>
      <g style="fill:#4d4d4d;" transform="translate(27.844938 77.30825)scale(0.088 -0.088)">
       <use xlink:href="#DejaVuSans-55"/>
       <use x="63.623047" xlink:href="#DejaVuSans-53"/>
      </g>
     </g>
    </g>
    <g id="ytick_5">
     <g id="line2d_24">
      <path clip-path="url(#p2d26842055)" d="M 43.992938 26.88 
L 378.792937 26.88 
" style="fill:none;stroke:#ffffff;"/>
     </g>
     <g id="line2d_25">
      <path d="M 43.992938 26.88 
" style="fill:none;stroke:#333333;stroke-width:1.5;"/>
      <g>
       <use style="fill:#333333;stroke:#333333;" x="43.992938" xlink:href="#m73625c5682" y="26.88"/>
      </g>
     </g>
     <g id="text_11">
      <!-- 100 -->
      <g style="fill:#4d4d4d;" transform="translate(22.245938 29.30825)scale(0.088 -0.088)">
       <use xlink:href="#DejaVuSans-49"/>
       <use x="63.623047" xlink:href="#DejaVuSans-48"/>
       <use x="127.246094" xlink:href="#DejaVuSans-48"/>
      </g>
     </g>
    </g>
    <g id="ytick_6">
     <g id="line2d_26">
      <path clip-path="url(#p2d26842055)" d="M 43.992938 194.88 
L 378.792937 194.88 
" style="fill:none;stroke:#ffffff;stroke-width:0.5;"/>
     </g>
    </g>
    <g id="ytick_7">
     <g id="line2d_27">
      <path clip-path="url(#p2d26842055)" d="M 43.992938 146.88 
L 378.792937 146.88 
" style="fill:none;stroke:#ffffff;stroke-width:0.5;"/>
     </g>
    </g>
    <g id="ytick_8">
     <g id="line2d_28">
      <path clip-path="url(#p2d26842055)" d="M 43.992938 98.88 
L 378.792937 98.88 
" style="fill:none;stroke:#ffffff;stroke-width:0.5;"/>
     </g>
    </g>
    <g id="ytick_9">
     <g id="line2d_29">
      <path clip-path="url(#p2d26842055)" d="M 43.992938 50.88 
L 378.792937 50.88 
" style="fill:none;stroke:#ffffff;stroke-width:0.5;"/>
     </g>
    </g>
    <g id="text_12">
     <!-- count -->
     <defs>
      <path d="M 48.78125 52.59375 
L 48.78125 44.1875 
Q 44.96875 46.296875 41.140625 47.34375 
Q 37.3125 48.390625 33.40625 48.390625 
Q 24.65625 48.390625 19.8125 42.84375 
Q 14.984375 37.3125 14.984375 27.296875 
Q 14.984375 17.28125 19.8125 11.734375 
Q 24.65625 6.203125 33.40625 6.203125 
Q 37.3125 6.203125 41.140625 7.25 
Q 44.96875 8.296875 48.78125 10.40625 
L 48.78125 2.09375 
Q 45.015625 0.34375 40.984375 -0.53125 
Q 36.96875 -1.421875 32.421875 -1.421875 
Q 20.0625 -1.421875 12.78125 6.34375 
Q 5.515625 14.109375 5.515625 27.296875 
Q 5.515625 40.671875 12.859375 48.328125 
Q 20.21875 56 33.015625 56 
Q 37.15625 56 41.109375 55.140625 
Q 45.0625 54.296875 48.78125 52.59375 
z
" id="DejaVuSans-99"/>
      <path d="M 30.609375 48.390625 
Q 23.390625 48.390625 19.1875 42.75 
Q 14.984375 37.109375 14.984375 27.296875 
Q 14.984375 17.484375 19.15625 11.84375 
Q 23.34375 6.203125 30.609375 6.203125 
Q 37.796875 6.203125 41.984375 11.859375 
Q 46.1875 17.53125 46.1875 27.296875 
Q 46.1875 37.015625 41.984375 42.703125 
Q 37.796875 48.390625 30.609375 48.390625 
z
M 30.609375 56 
Q 42.328125 56 49.015625 48.375 
Q 55.71875 40.765625 55.71875 27.296875 
Q 55.71875 13.875 49.015625 6.21875 
Q 42.328125 -1.421875 30.609375 -1.421875 
Q 18.84375 -1.421875 12.171875 6.21875 
Q 5.515625 13.875 5.515625 27.296875 
Q 5.515625 40.765625 12.171875 48.375 
Q 18.84375 56 30.609375 56 
z
" id="DejaVuSans-111"/>
      <path d="M 8.5 21.578125 
L 8.5 54.6875 
L 17.484375 54.6875 
L 17.484375 21.921875 
Q 17.484375 14.15625 20.5 10.265625 
Q 23.53125 6.390625 29.59375 6.390625 
Q 36.859375 6.390625 41.078125 11.03125 
Q 45.3125 15.671875 45.3125 23.6875 
L 45.3125 54.6875 
L 54.296875 54.6875 
L 54.296875 0 
L 45.3125 0 
L 45.3125 8.40625 
Q 42.046875 3.421875 37.71875 1 
Q 33.40625 -1.421875 27.6875 -1.421875 
Q 18.265625 -1.421875 13.375 4.4375 
Q 8.5 10.296875 8.5 21.578125 
z
M 31.109375 56 
z
" id="DejaVuSans-117"/>
      <path d="M 54.890625 33.015625 
L 54.890625 0 
L 45.90625 0 
L 45.90625 32.71875 
Q 45.90625 40.484375 42.875 44.328125 
Q 39.84375 48.1875 33.796875 48.1875 
Q 26.515625 48.1875 22.3125 43.546875 
Q 18.109375 38.921875 18.109375 30.90625 
L 18.109375 0 
L 9.078125 0 
L 9.078125 54.6875 
L 18.109375 54.6875 
L 18.109375 46.1875 
Q 21.34375 51.125 25.703125 53.5625 
Q 30.078125 56 35.796875 56 
Q 45.21875 56 50.046875 50.171875 
Q 54.890625 44.34375 54.890625 33.015625 
z
" id="DejaVuSans-110"/>
      <path d="M 18.3125 70.21875 
L 18.3125 54.6875 
L 36.8125 54.6875 
L 36.8125 47.703125 
L 18.3125 47.703125 
L 18.3125 18.015625 
Q 18.3125 11.328125 20.140625 9.421875 
Q 21.96875 7.515625 27.59375 7.515625 
L 36.8125 7.515625 
L 36.8125 0 
L 27.59375 0 
Q 17.1875 0 13.234375 3.875 
Q 9.28125 7.765625 9.28125 18.015625 
L 9.28125 47.703125 
L 2.6875 47.703125 
L 2.6875 54.6875 
L 9.28125 54.6875 
L 9.28125 70.21875 
z
" id="DejaVuSans-116"/>
     </defs>
     <g transform="translate(15.558281 132.156875)rotate(-90)scale(0.11 -0.11)">
      <use xlink:href="#DejaVuSans-99"/>
      <use x="54.980469" xlink:href="#DejaVuSans-111"/>
      <use x="116.162109" xlink:href="#DejaVuSans-117"/>
      <use x="179.541016" xlink:href="#DejaVuSans-110"/>
      <use x="242.919922" xlink:href="#DejaVuSans-116"/>
     </g>
    </g>
   </g>
   <g id="PolyCollection_1">
    <path clip-path="url(#p2d26842055)" d="M 59.211119 218.88 
L 59.211119 215.04 
L 59.887483 215.04 
L 59.887483 218.88 
z
" style="fill:#595959;"/>
    <path clip-path="url(#p2d26842055)" d="M 59.887483 218.88 
L 59.887483 182.4 
L 60.563847 182.4 
L 60.563847 218.88 
z
" style="fill:#595959;"/>
    <path clip-path="url(#p2d26842055)" d="M 60.563847 218.88 
L 60.563847 176.64 
L 61.24021 176.64 
L 61.24021 218.88 
z
" style="fill:#595959;"/>
    <path clip-path="url(#p2d26842055)" d="M 61.24021 218.88 
L 61.24021 163.2 
L 61.916574 163.2 
L 61.916574 218.88 
z
" style="fill:#595959;"/>
    <path clip-path="url(#p2d26842055)" d="M 61.916574 218.88 
L 61.916574 99.84 
L 62.592938 99.84 
L 62.592938 218.88 
z
" style="fill:#595959;"/>
    <path clip-path="url(#p2d26842055)" d="M 62.592938 218.88 
L 62.592938 71.04 
L 63.269301 71.04 
L 63.269301 218.88 
z
" style="fill:#595959;"/>
    <path clip-path="url(#p2d26842055)" d="M 63.269301 218.88 
L 63.269301 26.88 
L 63.945665 26.88 
L 63.945665 218.88 
z
" style="fill:#595959;"/>
    <path clip-path="url(#p2d26842055)" d="M 63.945665 218.88 
L 63.945665 17.28 
L 64.622028 17.28 
L 64.622028 218.88 
z
" style="fill:#595959;"/>
    <path clip-path="url(#p2d26842055)" d="M 64.622028 218.88 
L 64.622028 88.32 
L 65.298392 88.32 
L 65.298392 218.88 
z
" style="fill:#595959;"/>
    <path clip-path="url(#p2d26842055)" d="M 65.298392 218.88 
L 65.298392 72.96 
L 65.974756 72.96 
L 65.974756 218.88 
z
" style="fill:#595959;"/>
    <path clip-path="url(#p2d26842055)" d="M 65.974756 218.88 
L 65.974756 107.52 
L 66.651119 107.52 
L 66.651119 218.88 
z
" style="fill:#595959;"/>
    <path clip-path="url(#p2d26842055)" d="M 66.651119 218.88 
L 66.651119 144 
L 67.327483 144 
L 67.327483 218.88 
z
" style="fill:#595959;"/>
    <path clip-path="url(#p2d26842055)" d="M 67.327483 218.88 
L 67.327483 145.92 
L 68.003847 145.92 
L 68.003847 218.88 
z
" style="fill:#595959;"/>
    <path clip-path="url(#p2d26842055)" d="M 68.003847 218.88 
L 68.003847 153.6 
L 68.68021 153.6 
L 68.68021 218.88 
z
" style="fill:#595959;"/>
    <path clip-path="url(#p2d26842055)" d="M 68.68021 218.88 
L 68.68021 155.52 
L 69.356574 155.52 
L 69.356574 218.88 
z
" style="fill:#595959;"/>
    <path clip-path="url(#p2d26842055)" d="M 69.356574 218.88 
L 69.356574 163.2 
L 70.032938 163.2 
L 70.032938 218.88 
z
" style="fill:#595959;"/>
    <path clip-path="url(#p2d26842055)" d="M 70.032938 218.88 
L 70.032938 190.08 
L 70.709301 190.08 
L 70.709301 218.88 
z
" style="fill:#595959;"/>
    <path clip-path="url(#p2d26842055)" d="M 70.709301 218.88 
L 70.709301 172.8 
L 71.385665 172.8 
L 71.385665 218.88 
z
" style="fill:#595959;"/>
    <path clip-path="url(#p2d26842055)" d="M 71.385665 218.88 
L 71.385665 188.16 
L 72.062028 188.16 
L 72.062028 218.88 
z
" style="fill:#595959;"/>
    <path clip-path="url(#p2d26842055)" d="M 72.062028 218.88 
L 72.062028 184.32 
L 72.738392 184.32 
L 72.738392 218.88 
z
" style="fill:#595959;"/>
    <path clip-path="url(#p2d26842055)" d="M 72.738392 218.88 
L 72.738392 193.92 
L 73.414756 193.92 
L 73.414756 218.88 
z
" style="fill:#595959;"/>
    <path clip-path="url(#p2d26842055)" d="M 73.414756 218.88 
L 73.414756 193.92 
L 74.091119 193.92 
L 74.091119 218.88 
z
" style="fill:#595959;"/>
    <path clip-path="url(#p2d26842055)" d="M 74.091119 218.88 
L 74.091119 201.6 
L 74.767483 201.6 
L 74.767483 218.88 
z
" style="fill:#595959;"/>
    <path clip-path="url(#p2d26842055)" d="M 74.767483 218.88 
L 74.767483 207.36 
L 75.443847 207.36 
L 75.443847 218.88 
z
" style="fill:#595959;"/>
    <path clip-path="url(#p2d26842055)" d="M 75.443847 218.88 
L 75.443847 197.76 
L 76.12021 197.76 
L 76.12021 218.88 
z
" style="fill:#595959;"/>
    <path clip-path="url(#p2d26842055)" d="M 76.12021 218.88 
L 76.12021 197.76 
L 76.796574 197.76 
L 76.796574 218.88 
z
" style="fill:#595959;"/>
    <path clip-path="url(#p2d26842055)" d="M 76.796574 218.88 
L 76.796574 205.44 
L 77.472938 205.44 
L 77.472938 218.88 
z
" style="fill:#595959;"/>
    <path clip-path="url(#p2d26842055)" d="M 77.472938 218.88 
L 77.472938 213.12 
L 78.149301 213.12 
L 78.149301 218.88 
z
" style="fill:#595959;"/>
    <path clip-path="url(#p2d26842055)" d="M 78.149301 218.88 
L 78.149301 211.2 
L 78.825665 211.2 
L 78.825665 218.88 
z
" style="fill:#595959;"/>
    <path clip-path="url(#p2d26842055)" d="M 78.825665 218.88 
L 78.825665 205.44 
L 79.502028 205.44 
L 79.502028 218.88 
z
" style="fill:#595959;"/>
    <path clip-path="url(#p2d26842055)" d="M 79.502028 218.88 
L 79.502028 215.04 
L 80.178392 215.04 
L 80.178392 218.88 
z
" style="fill:#595959;"/>
    <path clip-path="url(#p2d26842055)" d="M 80.178392 218.88 
L 80.178392 203.52 
L 80.854756 203.52 
L 80.854756 218.88 
z
" style="fill:#595959;"/>
    <path clip-path="url(#p2d26842055)" d="M 80.854756 218.88 
L 80.854756 215.04 
L 81.531119 215.04 
L 81.531119 218.88 
z
" style="fill:#595959;"/>
    <path clip-path="url(#p2d26842055)" d="M 81.531119 218.88 
L 81.531119 213.12 
L 82.207483 213.12 
L 82.207483 218.88 
z
" style="fill:#595959;"/>
    <path clip-path="url(#p2d26842055)" d="M 82.207483 218.88 
L 82.207483 211.2 
L 82.883847 211.2 
L 82.883847 218.88 
z
" style="fill:#595959;"/>
    <path clip-path="url(#p2d26842055)" d="M 82.883847 218.88 
L 82.883847 218.88 
L 83.56021 218.88 
L 83.56021 218.88 
z
" style="fill:#595959;"/>
    <path clip-path="url(#p2d26842055)" d="M 83.56021 218.88 
L 83.56021 215.04 
L 84.236574 215.04 
L 84.236574 218.88 
z
" style="fill:#595959;"/>
    <path clip-path="url(#p2d26842055)" d="M 84.236574 218.88 
L 84.236574 216.96 
L 84.912937 216.96 
L 84.912937 218.88 
z
" style="fill:#595959;"/>
    <path clip-path="url(#p2d26842055)" d="M 84.912937 218.88 
L 84.912937 218.88 
L 85.589301 218.88 
L 85.589301 218.88 
z
" style="fill:#595959;"/>
    <path clip-path="url(#p2d26842055)" d="M 85.589301 218.88 
L 85.589301 215.04 
L 86.265665 215.04 
L 86.265665 218.88 
z
" style="fill:#595959;"/>
    <path clip-path="url(#p2d26842055)" d="M 86.265665 218.88 
L 86.265665 216.96 
L 86.942028 216.96 
L 86.942028 218.88 
z
" style="fill:#595959;"/>
    <path clip-path="url(#p2d26842055)" d="M 86.942028 218.88 
L 86.942028 216.96 
L 87.618392 216.96 
L 87.618392 218.88 
z
" style="fill:#595959;"/>
    <path clip-path="url(#p2d26842055)" d="M 87.618392 218.88 
L 87.618392 215.04 
L 88.294756 215.04 
L 88.294756 218.88 
z
" style="fill:#595959;"/>
    <path clip-path="url(#p2d26842055)" d="M 88.294756 218.88 
L 88.294756 213.12 
L 88.971119 213.12 
L 88.971119 218.88 
z
" style="fill:#595959;"/>
    <path clip-path="url(#p2d26842055)" d="M 88.971119 218.88 
L 88.971119 218.88 
L 89.647483 218.88 
L 89.647483 218.88 
z
" style="fill:#595959;"/>
    <path clip-path="url(#p2d26842055)" d="M 89.647483 218.88 
L 89.647483 216.96 
L 90.323847 216.96 
L 90.323847 218.88 
z
" style="fill:#595959;"/>
    <path clip-path="url(#p2d26842055)" d="M 90.323847 218.88 
L 90.323847 218.88 
L 91.00021 218.88 
L 91.00021 218.88 
z
" style="fill:#595959;"/>
    <path clip-path="url(#p2d26842055)" d="M 91.00021 218.88 
L 91.00021 209.28 
L 91.676574 209.28 
L 91.676574 218.88 
z
" style="fill:#595959;"/>
    <path clip-path="url(#p2d26842055)" d="M 91.676574 218.88 
L 91.676574 218.88 
L 92.352937 218.88 
L 92.352937 218.88 
z
" style="fill:#595959;"/>
    <path clip-path="url(#p2d26842055)" d="M 92.352937 218.88 
L 92.352937 215.04 
L 93.029301 215.04 
L 93.029301 218.88 
z
" style="fill:#595959;"/>
    <path clip-path="url(#p2d26842055)" d="M 93.029301 218.88 
L 93.029301 216.96 
L 93.705665 216.96 
L 93.705665 218.88 
z
" style="fill:#595959;"/>
    <path clip-path="url(#p2d26842055)" d="M 93.705665 218.88 
L 93.705665 216.96 
L 94.382028 216.96 
L 94.382028 218.88 
z
" style="fill:#595959;"/>
    <path clip-path="url(#p2d26842055)" d="M 94.382028 218.88 
L 94.382028 218.88 
L 95.058392 218.88 
L 95.058392 218.88 
z
" style="fill:#595959;"/>
    <path clip-path="url(#p2d26842055)" d="M 95.058392 218.88 
L 95.058392 216.96 
L 95.734756 216.96 
L 95.734756 218.88 
z
" style="fill:#595959;"/>
    <path clip-path="url(#p2d26842055)" d="M 95.734756 218.88 
L 95.734756 216.96 
L 96.411119 216.96 
L 96.411119 218.88 
z
" style="fill:#595959;"/>
    <path clip-path="url(#p2d26842055)" d="M 96.411119 218.88 
L 96.411119 218.88 
L 97.087483 218.88 
L 97.087483 218.88 
z
" style="fill:#595959;"/>
    <path clip-path="url(#p2d26842055)" d="M 97.087483 218.88 
L 97.087483 216.96 
L 97.763847 216.96 
L 97.763847 218.88 
z
" style="fill:#595959;"/>
    <path clip-path="url(#p2d26842055)" d="M 97.763847 218.88 
L 97.763847 216.96 
L 98.44021 216.96 
L 98.44021 218.88 
z
" style="fill:#595959;"/>
    <path clip-path="url(#p2d26842055)" d="M 98.44021 218.88 
L 98.44021 216.96 
L 99.116574 216.96 
L 99.116574 218.88 
z
" style="fill:#595959;"/>
    <path clip-path="url(#p2d26842055)" d="M 99.116574 218.88 
L 99.116574 218.88 
L 99.792937 218.88 
L 99.792937 218.88 
z
" style="fill:#595959;"/>
    <path clip-path="url(#p2d26842055)" d="M 99.792937 218.88 
L 99.792937 218.88 
L 100.469301 218.88 
L 100.469301 218.88 
z
" style="fill:#595959;"/>
    <path clip-path="url(#p2d26842055)" d="M 100.469301 218.88 
L 100.469301 218.88 
L 101.145665 218.88 
L 101.145665 218.88 
z
" style="fill:#595959;"/>
    <path clip-path="url(#p2d26842055)" d="M 101.145665 218.88 
L 101.145665 218.88 
L 101.822028 218.88 
L 101.822028 218.88 
z
" style="fill:#595959;"/>
    <path clip-path="url(#p2d26842055)" d="M 101.822028 218.88 
L 101.822028 218.88 
L 102.498392 218.88 
L 102.498392 218.88 
z
" style="fill:#595959;"/>
    <path clip-path="url(#p2d26842055)" d="M 102.498392 218.88 
L 102.498392 216.96 
L 103.174756 216.96 
L 103.174756 218.88 
z
" style="fill:#595959;"/>
    <path clip-path="url(#p2d26842055)" d="M 103.174756 218.88 
L 103.174756 218.88 
L 103.851119 218.88 
L 103.851119 218.88 
z
" style="fill:#595959;"/>
    <path clip-path="url(#p2d26842055)" d="M 103.851119 218.88 
L 103.851119 218.88 
L 104.527483 218.88 
L 104.527483 218.88 
z
" style="fill:#595959;"/>
    <path clip-path="url(#p2d26842055)" d="M 104.527483 218.88 
L 104.527483 216.96 
L 105.203847 216.96 
L 105.203847 218.88 
z
" style="fill:#595959;"/>
    <path clip-path="url(#p2d26842055)" d="M 105.203847 218.88 
L 105.203847 218.88 
L 105.88021 218.88 
L 105.88021 218.88 
z
" style="fill:#595959;"/>
    <path clip-path="url(#p2d26842055)" d="M 105.88021 218.88 
L 105.88021 216.96 
L 106.556574 216.96 
L 106.556574 218.88 
z
" style="fill:#595959;"/>
    <path clip-path="url(#p2d26842055)" d="M 106.556574 218.88 
L 106.556574 216.96 
L 107.232938 216.96 
L 107.232938 218.88 
z
" style="fill:#595959;"/>
    <path clip-path="url(#p2d26842055)" d="M 107.232938 218.88 
L 107.232938 218.88 
L 107.909301 218.88 
L 107.909301 218.88 
z
" style="fill:#595959;"/>
    <path clip-path="url(#p2d26842055)" d="M 107.909301 218.88 
L 107.909301 218.88 
L 108.585665 218.88 
L 108.585665 218.88 
z
" style="fill:#595959;"/>
    <path clip-path="url(#p2d26842055)" d="M 108.585665 218.88 
L 108.585665 218.88 
L 109.262028 218.88 
L 109.262028 218.88 
z
" style="fill:#595959;"/>
    <path clip-path="url(#p2d26842055)" d="M 109.262028 218.88 
L 109.262028 218.88 
L 109.938392 218.88 
L 109.938392 218.88 
z
" style="fill:#595959;"/>
    <path clip-path="url(#p2d26842055)" d="M 109.938392 218.88 
L 109.938392 218.88 
L 110.614756 218.88 
L 110.614756 218.88 
z
" style="fill:#595959;"/>
    <path clip-path="url(#p2d26842055)" d="M 110.614756 218.88 
L 110.614756 218.88 
L 111.291119 218.88 
L 111.291119 218.88 
z
" style="fill:#595959;"/>
    <path clip-path="url(#p2d26842055)" d="M 111.291119 218.88 
L 111.291119 218.88 
L 111.967483 218.88 
L 111.967483 218.88 
z
" style="fill:#595959;"/>
    <path clip-path="url(#p2d26842055)" d="M 111.967483 218.88 
L 111.967483 218.88 
L 112.643847 218.88 
L 112.643847 218.88 
z
" style="fill:#595959;"/>
    <path clip-path="url(#p2d26842055)" d="M 112.643847 218.88 
L 112.643847 218.88 
L 113.32021 218.88 
L 113.32021 218.88 
z
" style="fill:#595959;"/>
    <path clip-path="url(#p2d26842055)" d="M 113.32021 218.88 
L 113.32021 218.88 
L 113.996574 218.88 
L 113.996574 218.88 
z
" style="fill:#595959;"/>
    <path clip-path="url(#p2d26842055)" d="M 113.996574 218.88 
L 113.996574 218.88 
L 114.672938 218.88 
L 114.672938 218.88 
z
" style="fill:#595959;"/>
    <path clip-path="url(#p2d26842055)" d="M 114.672938 218.88 
L 114.672938 218.88 
L 115.349301 218.88 
L 115.349301 218.88 
z
" style="fill:#595959;"/>
    <path clip-path="url(#p2d26842055)" d="M 115.349301 218.88 
L 115.349301 216.96 
L 116.025665 216.96 
L 116.025665 218.88 
z
" style="fill:#595959;"/>
    <path clip-path="url(#p2d26842055)" d="M 116.025665 218.88 
L 116.025665 218.88 
L 116.702028 218.88 
L 116.702028 218.88 
z
" style="fill:#595959;"/>
    <path clip-path="url(#p2d26842055)" d="M 116.702028 218.88 
L 116.702028 216.96 
L 117.378392 216.96 
L 117.378392 218.88 
z
" style="fill:#595959;"/>
    <path clip-path="url(#p2d26842055)" d="M 117.378392 218.88 
L 117.378392 216.96 
L 118.054756 216.96 
L 118.054756 218.88 
z
" style="fill:#595959;"/>
    <path clip-path="url(#p2d26842055)" d="M 118.054756 218.88 
L 118.054756 218.88 
L 118.731119 218.88 
L 118.731119 218.88 
z
" style="fill:#595959;"/>
    <path clip-path="url(#p2d26842055)" d="M 118.731119 218.88 
L 118.731119 218.88 
L 119.407483 218.88 
L 119.407483 218.88 
z
" style="fill:#595959;"/>
    <path clip-path="url(#p2d26842055)" d="M 119.407483 218.88 
L 119.407483 218.88 
L 120.083847 218.88 
L 120.083847 218.88 
z
" style="fill:#595959;"/>
    <path clip-path="url(#p2d26842055)" d="M 120.083847 218.88 
L 120.083847 218.88 
L 120.76021 218.88 
L 120.76021 218.88 
z
" style="fill:#595959;"/>
    <path clip-path="url(#p2d26842055)" d="M 120.76021 218.88 
L 120.76021 218.88 
L 121.436574 218.88 
L 121.436574 218.88 
z
" style="fill:#595959;"/>
    <path clip-path="url(#p2d26842055)" d="M 121.436574 218.88 
L 121.436574 218.88 
L 122.112938 218.88 
L 122.112938 218.88 
z
" style="fill:#595959;"/>
    <path clip-path="url(#p2d26842055)" d="M 122.112938 218.88 
L 122.112938 218.88 
L 122.789301 218.88 
L 122.789301 218.88 
z
" style="fill:#595959;"/>
    <path clip-path="url(#p2d26842055)" d="M 122.789301 218.88 
L 122.789301 218.88 
L 123.465665 218.88 
L 123.465665 218.88 
z
" style="fill:#595959;"/>
    <path clip-path="url(#p2d26842055)" d="M 123.465665 218.88 
L 123.465665 218.88 
L 124.142028 218.88 
L 124.142028 218.88 
z
" style="fill:#595959;"/>
    <path clip-path="url(#p2d26842055)" d="M 124.142028 218.88 
L 124.142028 215.04 
L 124.818392 215.04 
L 124.818392 218.88 
z
" style="fill:#595959;"/>
    <path clip-path="url(#p2d26842055)" d="M 124.818392 218.88 
L 124.818392 216.96 
L 125.494756 216.96 
L 125.494756 218.88 
z
" style="fill:#595959;"/>
    <path clip-path="url(#p2d26842055)" d="M 125.494756 218.88 
L 125.494756 218.88 
L 126.171119 218.88 
L 126.171119 218.88 
z
" style="fill:#595959;"/>
    <path clip-path="url(#p2d26842055)" d="M 126.171119 218.88 
L 126.171119 218.88 
L 126.847483 218.88 
L 126.847483 218.88 
z
" style="fill:#595959;"/>
    <path clip-path="url(#p2d26842055)" d="M 126.847483 218.88 
L 126.847483 218.88 
L 127.523847 218.88 
L 127.523847 218.88 
z
" style="fill:#595959;"/>
    <path clip-path="url(#p2d26842055)" d="M 127.523847 218.88 
L 127.523847 218.88 
L 128.20021 218.88 
L 128.20021 218.88 
z
" style="fill:#595959;"/>
    <path clip-path="url(#p2d26842055)" d="M 128.20021 218.88 
L 128.20021 216.96 
L 128.876574 216.96 
L 128.876574 218.88 
z
" style="fill:#595959;"/>
    <path clip-path="url(#p2d26842055)" d="M 128.876574 218.88 
L 128.876574 218.88 
L 129.552938 218.88 
L 129.552938 218.88 
z
" style="fill:#595959;"/>
    <path clip-path="url(#p2d26842055)" d="M 129.552938 218.88 
L 129.552938 216.96 
L 130.229301 216.96 
L 130.229301 218.88 
z
" style="fill:#595959;"/>
    <path clip-path="url(#p2d26842055)" d="M 130.229301 218.88 
L 130.229301 218.88 
L 130.905665 218.88 
L 130.905665 218.88 
z
" style="fill:#595959;"/>
    <path clip-path="url(#p2d26842055)" d="M 130.905665 218.88 
L 130.905665 218.88 
L 131.582028 218.88 
L 131.582028 218.88 
z
" style="fill:#595959;"/>
    <path clip-path="url(#p2d26842055)" d="M 131.582028 218.88 
L 131.582028 218.88 
L 132.258392 218.88 
L 132.258392 218.88 
z
" style="fill:#595959;"/>
    <path clip-path="url(#p2d26842055)" d="M 132.258392 218.88 
L 132.258392 218.88 
L 132.934756 218.88 
L 132.934756 218.88 
z
" style="fill:#595959;"/>
    <path clip-path="url(#p2d26842055)" d="M 132.934756 218.88 
L 132.934756 218.88 
L 133.611119 218.88 
L 133.611119 218.88 
z
" style="fill:#595959;"/>
    <path clip-path="url(#p2d26842055)" d="M 133.611119 218.88 
L 133.611119 216.96 
L 134.287483 216.96 
L 134.287483 218.88 
z
" style="fill:#595959;"/>
    <path clip-path="url(#p2d26842055)" d="M 134.287483 218.88 
L 134.287483 218.88 
L 134.963847 218.88 
L 134.963847 218.88 
z
" style="fill:#595959;"/>
    <path clip-path="url(#p2d26842055)" d="M 134.963847 218.88 
L 134.963847 218.88 
L 135.64021 218.88 
L 135.64021 218.88 
z
" style="fill:#595959;"/>
    <path clip-path="url(#p2d26842055)" d="M 135.64021 218.88 
L 135.64021 218.88 
L 136.316574 218.88 
L 136.316574 218.88 
z
" style="fill:#595959;"/>
    <path clip-path="url(#p2d26842055)" d="M 136.316574 218.88 
L 136.316574 218.88 
L 136.992938 218.88 
L 136.992938 218.88 
z
" style="fill:#595959;"/>
    <path clip-path="url(#p2d26842055)" d="M 136.992938 218.88 
L 136.992938 218.88 
L 137.669301 218.88 
L 137.669301 218.88 
z
" style="fill:#595959;"/>
    <path clip-path="url(#p2d26842055)" d="M 137.669301 218.88 
L 137.669301 218.88 
L 138.345665 218.88 
L 138.345665 218.88 
z
" style="fill:#595959;"/>
    <path clip-path="url(#p2d26842055)" d="M 138.345665 218.88 
L 138.345665 216.96 
L 139.022028 216.96 
L 139.022028 218.88 
z
" style="fill:#595959;"/>
    <path clip-path="url(#p2d26842055)" d="M 139.022028 218.88 
L 139.022028 218.88 
L 139.698392 218.88 
L 139.698392 218.88 
z
" style="fill:#595959;"/>
    <path clip-path="url(#p2d26842055)" d="M 139.698392 218.88 
L 139.698392 216.96 
L 140.374756 216.96 
L 140.374756 218.88 
z
" style="fill:#595959;"/>
    <path clip-path="url(#p2d26842055)" d="M 140.374756 218.88 
L 140.374756 218.88 
L 141.051119 218.88 
L 141.051119 218.88 
z
" style="fill:#595959;"/>
    <path clip-path="url(#p2d26842055)" d="M 141.051119 218.88 
L 141.051119 218.88 
L 141.727483 218.88 
L 141.727483 218.88 
z
" style="fill:#595959;"/>
    <path clip-path="url(#p2d26842055)" d="M 141.727483 218.88 
L 141.727483 218.88 
L 142.403847 218.88 
L 142.403847 218.88 
z
" style="fill:#595959;"/>
    <path clip-path="url(#p2d26842055)" d="M 142.403847 218.88 
L 142.403847 218.88 
L 143.08021 218.88 
L 143.08021 218.88 
z
" style="fill:#595959;"/>
    <path clip-path="url(#p2d26842055)" d="M 143.08021 218.88 
L 143.08021 218.88 
L 143.756574 218.88 
L 143.756574 218.88 
z
" style="fill:#595959;"/>
    <path clip-path="url(#p2d26842055)" d="M 143.756574 218.88 
L 143.756574 218.88 
L 144.432938 218.88 
L 144.432938 218.88 
z
" style="fill:#595959;"/>
    <path clip-path="url(#p2d26842055)" d="M 144.432938 218.88 
L 144.432938 218.88 
L 145.109301 218.88 
L 145.109301 218.88 
z
" style="fill:#595959;"/>
    <path clip-path="url(#p2d26842055)" d="M 145.109301 218.88 
L 145.109301 218.88 
L 145.785665 218.88 
L 145.785665 218.88 
z
" style="fill:#595959;"/>
    <path clip-path="url(#p2d26842055)" d="M 145.785665 218.88 
L 145.785665 218.88 
L 146.462028 218.88 
L 146.462028 218.88 
z
" style="fill:#595959;"/>
    <path clip-path="url(#p2d26842055)" d="M 146.462028 218.88 
L 146.462028 216.96 
L 147.138392 216.96 
L 147.138392 218.88 
z
" style="fill:#595959;"/>
    <path clip-path="url(#p2d26842055)" d="M 147.138392 218.88 
L 147.138392 218.88 
L 147.814756 218.88 
L 147.814756 218.88 
z
" style="fill:#595959;"/>
    <path clip-path="url(#p2d26842055)" d="M 147.814756 218.88 
L 147.814756 218.88 
L 148.491119 218.88 
L 148.491119 218.88 
z
" style="fill:#595959;"/>
    <path clip-path="url(#p2d26842055)" d="M 148.491119 218.88 
L 148.491119 218.88 
L 149.167483 218.88 
L 149.167483 218.88 
z
" style="fill:#595959;"/>
    <path clip-path="url(#p2d26842055)" d="M 149.167483 218.88 
L 149.167483 218.88 
L 149.843847 218.88 
L 149.843847 218.88 
z
" style="fill:#595959;"/>
    <path clip-path="url(#p2d26842055)" d="M 149.843847 218.88 
L 149.843847 216.96 
L 150.52021 216.96 
L 150.52021 218.88 
z
" style="fill:#595959;"/>
    <path clip-path="url(#p2d26842055)" d="M 150.52021 218.88 
L 150.52021 218.88 
L 151.196574 218.88 
L 151.196574 218.88 
z
" style="fill:#595959;"/>
    <path clip-path="url(#p2d26842055)" d="M 151.196574 218.88 
L 151.196574 218.88 
L 151.872938 218.88 
L 151.872938 218.88 
z
" style="fill:#595959;"/>
    <path clip-path="url(#p2d26842055)" d="M 151.872938 218.88 
L 151.872938 218.88 
L 152.549301 218.88 
L 152.549301 218.88 
z
" style="fill:#595959;"/>
    <path clip-path="url(#p2d26842055)" d="M 152.549301 218.88 
L 152.549301 216.96 
L 153.225665 216.96 
L 153.225665 218.88 
z
" style="fill:#595959;"/>
    <path clip-path="url(#p2d26842055)" d="M 153.225665 218.88 
L 153.225665 218.88 
L 153.902028 218.88 
L 153.902028 218.88 
z
" style="fill:#595959;"/>
    <path clip-path="url(#p2d26842055)" d="M 153.902028 218.88 
L 153.902028 218.88 
L 154.578392 218.88 
L 154.578392 218.88 
z
" style="fill:#595959;"/>
    <path clip-path="url(#p2d26842055)" d="M 154.578392 218.88 
L 154.578392 216.96 
L 155.254756 216.96 
L 155.254756 218.88 
z
" style="fill:#595959;"/>
    <path clip-path="url(#p2d26842055)" d="M 155.254756 218.88 
L 155.254756 218.88 
L 155.931119 218.88 
L 155.931119 218.88 
z
" style="fill:#595959;"/>
    <path clip-path="url(#p2d26842055)" d="M 155.931119 218.88 
L 155.931119 218.88 
L 156.607483 218.88 
L 156.607483 218.88 
z
" style="fill:#595959;"/>
    <path clip-path="url(#p2d26842055)" d="M 156.607483 218.88 
L 156.607483 218.88 
L 157.283847 218.88 
L 157.283847 218.88 
z
" style="fill:#595959;"/>
    <path clip-path="url(#p2d26842055)" d="M 157.283847 218.88 
L 157.283847 218.88 
L 157.96021 218.88 
L 157.96021 218.88 
z
" style="fill:#595959;"/>
    <path clip-path="url(#p2d26842055)" d="M 157.96021 218.88 
L 157.96021 218.88 
L 158.636574 218.88 
L 158.636574 218.88 
z
" style="fill:#595959;"/>
    <path clip-path="url(#p2d26842055)" d="M 158.636574 218.88 
L 158.636574 218.88 
L 159.312938 218.88 
L 159.312938 218.88 
z
" style="fill:#595959;"/>
    <path clip-path="url(#p2d26842055)" d="M 159.312938 218.88 
L 159.312938 215.04 
L 159.989301 215.04 
L 159.989301 218.88 
z
" style="fill:#595959;"/>
    <path clip-path="url(#p2d26842055)" d="M 159.989301 218.88 
L 159.989301 218.88 
L 160.665665 218.88 
L 160.665665 218.88 
z
" style="fill:#595959;"/>
    <path clip-path="url(#p2d26842055)" d="M 160.665665 218.88 
L 160.665665 218.88 
L 161.342028 218.88 
L 161.342028 218.88 
z
" style="fill:#595959;"/>
    <path clip-path="url(#p2d26842055)" d="M 161.342028 218.88 
L 161.342028 218.88 
L 162.018392 218.88 
L 162.018392 218.88 
z
" style="fill:#595959;"/>
    <path clip-path="url(#p2d26842055)" d="M 162.018392 218.88 
L 162.018392 218.88 
L 162.694756 218.88 
L 162.694756 218.88 
z
" style="fill:#595959;"/>
    <path clip-path="url(#p2d26842055)" d="M 162.694756 218.88 
L 162.694756 218.88 
L 163.371119 218.88 
L 163.371119 218.88 
z
" style="fill:#595959;"/>
    <path clip-path="url(#p2d26842055)" d="M 163.371119 218.88 
L 163.371119 218.88 
L 164.047483 218.88 
L 164.047483 218.88 
z
" style="fill:#595959;"/>
    <path clip-path="url(#p2d26842055)" d="M 164.047483 218.88 
L 164.047483 218.88 
L 164.723847 218.88 
L 164.723847 218.88 
z
" style="fill:#595959;"/>
    <path clip-path="url(#p2d26842055)" d="M 164.723847 218.88 
L 164.723847 218.88 
L 165.40021 218.88 
L 165.40021 218.88 
z
" style="fill:#595959;"/>
    <path clip-path="url(#p2d26842055)" d="M 165.40021 218.88 
L 165.40021 218.88 
L 166.076574 218.88 
L 166.076574 218.88 
z
" style="fill:#595959;"/>
    <path clip-path="url(#p2d26842055)" d="M 166.076574 218.88 
L 166.076574 218.88 
L 166.752938 218.88 
L 166.752938 218.88 
z
" style="fill:#595959;"/>
    <path clip-path="url(#p2d26842055)" d="M 166.752938 218.88 
L 166.752938 218.88 
L 167.429301 218.88 
L 167.429301 218.88 
z
" style="fill:#595959;"/>
    <path clip-path="url(#p2d26842055)" d="M 167.429301 218.88 
L 167.429301 216.96 
L 168.105665 216.96 
L 168.105665 218.88 
z
" style="fill:#595959;"/>
    <path clip-path="url(#p2d26842055)" d="M 168.105665 218.88 
L 168.105665 218.88 
L 168.782028 218.88 
L 168.782028 218.88 
z
" style="fill:#595959;"/>
    <path clip-path="url(#p2d26842055)" d="M 168.782028 218.88 
L 168.782028 218.88 
L 169.458392 218.88 
L 169.458392 218.88 
z
" style="fill:#595959;"/>
    <path clip-path="url(#p2d26842055)" d="M 169.458392 218.88 
L 169.458392 218.88 
L 170.134756 218.88 
L 170.134756 218.88 
z
" style="fill:#595959;"/>
    <path clip-path="url(#p2d26842055)" d="M 170.134756 218.88 
L 170.134756 218.88 
L 170.811119 218.88 
L 170.811119 218.88 
z
" style="fill:#595959;"/>
    <path clip-path="url(#p2d26842055)" d="M 170.811119 218.88 
L 170.811119 218.88 
L 171.487483 218.88 
L 171.487483 218.88 
z
" style="fill:#595959;"/>
    <path clip-path="url(#p2d26842055)" d="M 171.487483 218.88 
L 171.487483 218.88 
L 172.163847 218.88 
L 172.163847 218.88 
z
" style="fill:#595959;"/>
    <path clip-path="url(#p2d26842055)" d="M 172.163847 218.88 
L 172.163847 218.88 
L 172.84021 218.88 
L 172.84021 218.88 
z
" style="fill:#595959;"/>
    <path clip-path="url(#p2d26842055)" d="M 172.84021 218.88 
L 172.84021 218.88 
L 173.516574 218.88 
L 173.516574 218.88 
z
" style="fill:#595959;"/>
    <path clip-path="url(#p2d26842055)" d="M 173.516574 218.88 
L 173.516574 218.88 
L 174.192938 218.88 
L 174.192938 218.88 
z
" style="fill:#595959;"/>
    <path clip-path="url(#p2d26842055)" d="M 174.192938 218.88 
L 174.192938 218.88 
L 174.869301 218.88 
L 174.869301 218.88 
z
" style="fill:#595959;"/>
    <path clip-path="url(#p2d26842055)" d="M 174.869301 218.88 
L 174.869301 218.88 
L 175.545665 218.88 
L 175.545665 218.88 
z
" style="fill:#595959;"/>
    <path clip-path="url(#p2d26842055)" d="M 175.545665 218.88 
L 175.545665 218.88 
L 176.222028 218.88 
L 176.222028 218.88 
z
" style="fill:#595959;"/>
    <path clip-path="url(#p2d26842055)" d="M 176.222028 218.88 
L 176.222028 218.88 
L 176.898392 218.88 
L 176.898392 218.88 
z
" style="fill:#595959;"/>
    <path clip-path="url(#p2d26842055)" d="M 176.898392 218.88 
L 176.898392 218.88 
L 177.574756 218.88 
L 177.574756 218.88 
z
" style="fill:#595959;"/>
    <path clip-path="url(#p2d26842055)" d="M 177.574756 218.88 
L 177.574756 218.88 
L 178.251119 218.88 
L 178.251119 218.88 
z
" style="fill:#595959;"/>
    <path clip-path="url(#p2d26842055)" d="M 178.251119 218.88 
L 178.251119 216.96 
L 178.927483 216.96 
L 178.927483 218.88 
z
" style="fill:#595959;"/>
    <path clip-path="url(#p2d26842055)" d="M 178.927483 218.88 
L 178.927483 218.88 
L 179.603847 218.88 
L 179.603847 218.88 
z
" style="fill:#595959;"/>
    <path clip-path="url(#p2d26842055)" d="M 179.603847 218.88 
L 179.603847 218.88 
L 180.28021 218.88 
L 180.28021 218.88 
z
" style="fill:#595959;"/>
    <path clip-path="url(#p2d26842055)" d="M 180.28021 218.88 
L 180.28021 218.88 
L 180.956574 218.88 
L 180.956574 218.88 
z
" style="fill:#595959;"/>
    <path clip-path="url(#p2d26842055)" d="M 180.956574 218.88 
L 180.956574 218.88 
L 181.632937 218.88 
L 181.632937 218.88 
z
" style="fill:#595959;"/>
    <path clip-path="url(#p2d26842055)" d="M 181.632937 218.88 
L 181.632937 218.88 
L 182.309301 218.88 
L 182.309301 218.88 
z
" style="fill:#595959;"/>
    <path clip-path="url(#p2d26842055)" d="M 182.309301 218.88 
L 182.309301 218.88 
L 182.985665 218.88 
L 182.985665 218.88 
z
" style="fill:#595959;"/>
    <path clip-path="url(#p2d26842055)" d="M 182.985665 218.88 
L 182.985665 218.88 
L 183.662028 218.88 
L 183.662028 218.88 
z
" style="fill:#595959;"/>
    <path clip-path="url(#p2d26842055)" d="M 183.662028 218.88 
L 183.662028 218.88 
L 184.338392 218.88 
L 184.338392 218.88 
z
" style="fill:#595959;"/>
    <path clip-path="url(#p2d26842055)" d="M 184.338392 218.88 
L 184.338392 218.88 
L 185.014756 218.88 
L 185.014756 218.88 
z
" style="fill:#595959;"/>
    <path clip-path="url(#p2d26842055)" d="M 185.014756 218.88 
L 185.014756 218.88 
L 185.691119 218.88 
L 185.691119 218.88 
z
" style="fill:#595959;"/>
    <path clip-path="url(#p2d26842055)" d="M 185.691119 218.88 
L 185.691119 218.88 
L 186.367483 218.88 
L 186.367483 218.88 
z
" style="fill:#595959;"/>
    <path clip-path="url(#p2d26842055)" d="M 186.367483 218.88 
L 186.367483 218.88 
L 187.043847 218.88 
L 187.043847 218.88 
z
" style="fill:#595959;"/>
    <path clip-path="url(#p2d26842055)" d="M 187.043847 218.88 
L 187.043847 218.88 
L 187.72021 218.88 
L 187.72021 218.88 
z
" style="fill:#595959;"/>
    <path clip-path="url(#p2d26842055)" d="M 187.72021 218.88 
L 187.72021 218.88 
L 188.396574 218.88 
L 188.396574 218.88 
z
" style="fill:#595959;"/>
    <path clip-path="url(#p2d26842055)" d="M 188.396574 218.88 
L 188.396574 218.88 
L 189.072938 218.88 
L 189.072938 218.88 
z
" style="fill:#595959;"/>
    <path clip-path="url(#p2d26842055)" d="M 189.072938 218.88 
L 189.072938 216.96 
L 189.749301 216.96 
L 189.749301 218.88 
z
" style="fill:#595959;"/>
    <path clip-path="url(#p2d26842055)" d="M 189.749301 218.88 
L 189.749301 218.88 
L 190.425665 218.88 
L 190.425665 218.88 
z
" style="fill:#595959;"/>
    <path clip-path="url(#p2d26842055)" d="M 190.425665 218.88 
L 190.425665 218.88 
L 191.102028 218.88 
L 191.102028 218.88 
z
" style="fill:#595959;"/>
    <path clip-path="url(#p2d26842055)" d="M 191.102028 218.88 
L 191.102028 218.88 
L 191.778392 218.88 
L 191.778392 218.88 
z
" style="fill:#595959;"/>
    <path clip-path="url(#p2d26842055)" d="M 191.778392 218.88 
L 191.778392 218.88 
L 192.454756 218.88 
L 192.454756 218.88 
z
" style="fill:#595959;"/>
    <path clip-path="url(#p2d26842055)" d="M 192.454756 218.88 
L 192.454756 218.88 
L 193.131119 218.88 
L 193.131119 218.88 
z
" style="fill:#595959;"/>
    <path clip-path="url(#p2d26842055)" d="M 193.131119 218.88 
L 193.131119 218.88 
L 193.807483 218.88 
L 193.807483 218.88 
z
" style="fill:#595959;"/>
    <path clip-path="url(#p2d26842055)" d="M 193.807483 218.88 
L 193.807483 218.88 
L 194.483847 218.88 
L 194.483847 218.88 
z
" style="fill:#595959;"/>
    <path clip-path="url(#p2d26842055)" d="M 194.483847 218.88 
L 194.483847 218.88 
L 195.16021 218.88 
L 195.16021 218.88 
z
" style="fill:#595959;"/>
    <path clip-path="url(#p2d26842055)" d="M 195.16021 218.88 
L 195.16021 218.88 
L 195.836574 218.88 
L 195.836574 218.88 
z
" style="fill:#595959;"/>
    <path clip-path="url(#p2d26842055)" d="M 195.836574 218.88 
L 195.836574 216.96 
L 196.512938 216.96 
L 196.512938 218.88 
z
" style="fill:#595959;"/>
    <path clip-path="url(#p2d26842055)" d="M 196.512938 218.88 
L 196.512938 218.88 
L 197.189301 218.88 
L 197.189301 218.88 
z
" style="fill:#595959;"/>
    <path clip-path="url(#p2d26842055)" d="M 197.189301 218.88 
L 197.189301 218.88 
L 197.865665 218.88 
L 197.865665 218.88 
z
" style="fill:#595959;"/>
    <path clip-path="url(#p2d26842055)" d="M 197.865665 218.88 
L 197.865665 216.96 
L 198.542028 216.96 
L 198.542028 218.88 
z
" style="fill:#595959;"/>
    <path clip-path="url(#p2d26842055)" d="M 198.542028 218.88 
L 198.542028 218.88 
L 199.218392 218.88 
L 199.218392 218.88 
z
" style="fill:#595959;"/>
    <path clip-path="url(#p2d26842055)" d="M 199.218392 218.88 
L 199.218392 218.88 
L 199.894756 218.88 
L 199.894756 218.88 
z
" style="fill:#595959;"/>
    <path clip-path="url(#p2d26842055)" d="M 199.894756 218.88 
L 199.894756 218.88 
L 200.571119 218.88 
L 200.571119 218.88 
z
" style="fill:#595959;"/>
    <path clip-path="url(#p2d26842055)" d="M 200.571119 218.88 
L 200.571119 218.88 
L 201.247483 218.88 
L 201.247483 218.88 
z
" style="fill:#595959;"/>
    <path clip-path="url(#p2d26842055)" d="M 201.247483 218.88 
L 201.247483 218.88 
L 201.923847 218.88 
L 201.923847 218.88 
z
" style="fill:#595959;"/>
    <path clip-path="url(#p2d26842055)" d="M 201.923847 218.88 
L 201.923847 218.88 
L 202.60021 218.88 
L 202.60021 218.88 
z
" style="fill:#595959;"/>
    <path clip-path="url(#p2d26842055)" d="M 202.60021 218.88 
L 202.60021 218.88 
L 203.276574 218.88 
L 203.276574 218.88 
z
" style="fill:#595959;"/>
    <path clip-path="url(#p2d26842055)" d="M 203.276574 218.88 
L 203.276574 218.88 
L 203.952938 218.88 
L 203.952938 218.88 
z
" style="fill:#595959;"/>
    <path clip-path="url(#p2d26842055)" d="M 203.952938 218.88 
L 203.952938 218.88 
L 204.629301 218.88 
L 204.629301 218.88 
z
" style="fill:#595959;"/>
    <path clip-path="url(#p2d26842055)" d="M 204.629301 218.88 
L 204.629301 218.88 
L 205.305665 218.88 
L 205.305665 218.88 
z
" style="fill:#595959;"/>
    <path clip-path="url(#p2d26842055)" d="M 205.305665 218.88 
L 205.305665 218.88 
L 205.982028 218.88 
L 205.982028 218.88 
z
" style="fill:#595959;"/>
    <path clip-path="url(#p2d26842055)" d="M 205.982028 218.88 
L 205.982028 218.88 
L 206.658392 218.88 
L 206.658392 218.88 
z
" style="fill:#595959;"/>
    <path clip-path="url(#p2d26842055)" d="M 206.658392 218.88 
L 206.658392 218.88 
L 207.334756 218.88 
L 207.334756 218.88 
z
" style="fill:#595959;"/>
    <path clip-path="url(#p2d26842055)" d="M 207.334756 218.88 
L 207.334756 218.88 
L 208.011119 218.88 
L 208.011119 218.88 
z
" style="fill:#595959;"/>
    <path clip-path="url(#p2d26842055)" d="M 208.011119 218.88 
L 208.011119 218.88 
L 208.687483 218.88 
L 208.687483 218.88 
z
" style="fill:#595959;"/>
    <path clip-path="url(#p2d26842055)" d="M 208.687483 218.88 
L 208.687483 218.88 
L 209.363847 218.88 
L 209.363847 218.88 
z
" style="fill:#595959;"/>
    <path clip-path="url(#p2d26842055)" d="M 209.363847 218.88 
L 209.363847 218.88 
L 210.04021 218.88 
L 210.04021 218.88 
z
" style="fill:#595959;"/>
    <path clip-path="url(#p2d26842055)" d="M 210.04021 218.88 
L 210.04021 218.88 
L 210.716574 218.88 
L 210.716574 218.88 
z
" style="fill:#595959;"/>
    <path clip-path="url(#p2d26842055)" d="M 210.716574 218.88 
L 210.716574 218.88 
L 211.392938 218.88 
L 211.392938 218.88 
z
" style="fill:#595959;"/>
    <path clip-path="url(#p2d26842055)" d="M 211.392938 218.88 
L 211.392938 218.88 
L 212.069301 218.88 
L 212.069301 218.88 
z
" style="fill:#595959;"/>
    <path clip-path="url(#p2d26842055)" d="M 212.069301 218.88 
L 212.069301 218.88 
L 212.745665 218.88 
L 212.745665 218.88 
z
" style="fill:#595959;"/>
    <path clip-path="url(#p2d26842055)" d="M 212.745665 218.88 
L 212.745665 218.88 
L 213.422028 218.88 
L 213.422028 218.88 
z
" style="fill:#595959;"/>
    <path clip-path="url(#p2d26842055)" d="M 213.422028 218.88 
L 213.422028 218.88 
L 214.098392 218.88 
L 214.098392 218.88 
z
" style="fill:#595959;"/>
    <path clip-path="url(#p2d26842055)" d="M 214.098392 218.88 
L 214.098392 218.88 
L 214.774756 218.88 
L 214.774756 218.88 
z
" style="fill:#595959;"/>
    <path clip-path="url(#p2d26842055)" d="M 214.774756 218.88 
L 214.774756 218.88 
L 215.451119 218.88 
L 215.451119 218.88 
z
" style="fill:#595959;"/>
    <path clip-path="url(#p2d26842055)" d="M 215.451119 218.88 
L 215.451119 218.88 
L 216.127483 218.88 
L 216.127483 218.88 
z
" style="fill:#595959;"/>
    <path clip-path="url(#p2d26842055)" d="M 216.127483 218.88 
L 216.127483 218.88 
L 216.803847 218.88 
L 216.803847 218.88 
z
" style="fill:#595959;"/>
    <path clip-path="url(#p2d26842055)" d="M 216.803847 218.88 
L 216.803847 218.88 
L 217.48021 218.88 
L 217.48021 218.88 
z
" style="fill:#595959;"/>
    <path clip-path="url(#p2d26842055)" d="M 217.48021 218.88 
L 217.48021 218.88 
L 218.156574 218.88 
L 218.156574 218.88 
z
" style="fill:#595959;"/>
    <path clip-path="url(#p2d26842055)" d="M 218.156574 218.88 
L 218.156574 218.88 
L 218.832937 218.88 
L 218.832937 218.88 
z
" style="fill:#595959;"/>
    <path clip-path="url(#p2d26842055)" d="M 218.832938 218.88 
L 218.832938 218.88 
L 219.509301 218.88 
L 219.509301 218.88 
z
" style="fill:#595959;"/>
    <path clip-path="url(#p2d26842055)" d="M 219.509301 218.88 
L 219.509301 218.88 
L 220.185665 218.88 
L 220.185665 218.88 
z
" style="fill:#595959;"/>
    <path clip-path="url(#p2d26842055)" d="M 220.185665 218.88 
L 220.185665 218.88 
L 220.862028 218.88 
L 220.862028 218.88 
z
" style="fill:#595959;"/>
    <path clip-path="url(#p2d26842055)" d="M 220.862028 218.88 
L 220.862028 218.88 
L 221.538392 218.88 
L 221.538392 218.88 
z
" style="fill:#595959;"/>
    <path clip-path="url(#p2d26842055)" d="M 221.538392 218.88 
L 221.538392 218.88 
L 222.214756 218.88 
L 222.214756 218.88 
z
" style="fill:#595959;"/>
    <path clip-path="url(#p2d26842055)" d="M 222.214756 218.88 
L 222.214756 218.88 
L 222.891119 218.88 
L 222.891119 218.88 
z
" style="fill:#595959;"/>
    <path clip-path="url(#p2d26842055)" d="M 222.891119 218.88 
L 222.891119 218.88 
L 223.567483 218.88 
L 223.567483 218.88 
z
" style="fill:#595959;"/>
    <path clip-path="url(#p2d26842055)" d="M 223.567483 218.88 
L 223.567483 218.88 
L 224.243847 218.88 
L 224.243847 218.88 
z
" style="fill:#595959;"/>
    <path clip-path="url(#p2d26842055)" d="M 224.243847 218.88 
L 224.243847 218.88 
L 224.92021 218.88 
L 224.92021 218.88 
z
" style="fill:#595959;"/>
    <path clip-path="url(#p2d26842055)" d="M 224.92021 218.88 
L 224.92021 218.88 
L 225.596574 218.88 
L 225.596574 218.88 
z
" style="fill:#595959;"/>
    <path clip-path="url(#p2d26842055)" d="M 225.596574 218.88 
L 225.596574 218.88 
L 226.272938 218.88 
L 226.272938 218.88 
z
" style="fill:#595959;"/>
    <path clip-path="url(#p2d26842055)" d="M 226.272938 218.88 
L 226.272938 216.96 
L 226.949301 216.96 
L 226.949301 218.88 
z
" style="fill:#595959;"/>
    <path clip-path="url(#p2d26842055)" d="M 226.949301 218.88 
L 226.949301 218.88 
L 227.625665 218.88 
L 227.625665 218.88 
z
" style="fill:#595959;"/>
    <path clip-path="url(#p2d26842055)" d="M 227.625665 218.88 
L 227.625665 218.88 
L 228.302028 218.88 
L 228.302028 218.88 
z
" style="fill:#595959;"/>
    <path clip-path="url(#p2d26842055)" d="M 228.302028 218.88 
L 228.302028 218.88 
L 228.978392 218.88 
L 228.978392 218.88 
z
" style="fill:#595959;"/>
    <path clip-path="url(#p2d26842055)" d="M 228.978392 218.88 
L 228.978392 218.88 
L 229.654756 218.88 
L 229.654756 218.88 
z
" style="fill:#595959;"/>
    <path clip-path="url(#p2d26842055)" d="M 229.654756 218.88 
L 229.654756 218.88 
L 230.331119 218.88 
L 230.331119 218.88 
z
" style="fill:#595959;"/>
    <path clip-path="url(#p2d26842055)" d="M 230.331119 218.88 
L 230.331119 218.88 
L 231.007483 218.88 
L 231.007483 218.88 
z
" style="fill:#595959;"/>
    <path clip-path="url(#p2d26842055)" d="M 231.007483 218.88 
L 231.007483 218.88 
L 231.683847 218.88 
L 231.683847 218.88 
z
" style="fill:#595959;"/>
    <path clip-path="url(#p2d26842055)" d="M 231.683847 218.88 
L 231.683847 218.88 
L 232.36021 218.88 
L 232.36021 218.88 
z
" style="fill:#595959;"/>
    <path clip-path="url(#p2d26842055)" d="M 232.36021 218.88 
L 232.36021 218.88 
L 233.036574 218.88 
L 233.036574 218.88 
z
" style="fill:#595959;"/>
    <path clip-path="url(#p2d26842055)" d="M 233.036574 218.88 
L 233.036574 218.88 
L 233.712938 218.88 
L 233.712938 218.88 
z
" style="fill:#595959;"/>
    <path clip-path="url(#p2d26842055)" d="M 233.712938 218.88 
L 233.712938 218.88 
L 234.389301 218.88 
L 234.389301 218.88 
z
" style="fill:#595959;"/>
    <path clip-path="url(#p2d26842055)" d="M 234.389301 218.88 
L 234.389301 218.88 
L 235.065665 218.88 
L 235.065665 218.88 
z
" style="fill:#595959;"/>
    <path clip-path="url(#p2d26842055)" d="M 235.065665 218.88 
L 235.065665 218.88 
L 235.742028 218.88 
L 235.742028 218.88 
z
" style="fill:#595959;"/>
    <path clip-path="url(#p2d26842055)" d="M 235.742028 218.88 
L 235.742028 218.88 
L 236.418392 218.88 
L 236.418392 218.88 
z
" style="fill:#595959;"/>
    <path clip-path="url(#p2d26842055)" d="M 236.418392 218.88 
L 236.418392 218.88 
L 237.094756 218.88 
L 237.094756 218.88 
z
" style="fill:#595959;"/>
    <path clip-path="url(#p2d26842055)" d="M 237.094756 218.88 
L 237.094756 218.88 
L 237.771119 218.88 
L 237.771119 218.88 
z
" style="fill:#595959;"/>
    <path clip-path="url(#p2d26842055)" d="M 237.771119 218.88 
L 237.771119 218.88 
L 238.447483 218.88 
L 238.447483 218.88 
z
" style="fill:#595959;"/>
    <path clip-path="url(#p2d26842055)" d="M 238.447483 218.88 
L 238.447483 218.88 
L 239.123847 218.88 
L 239.123847 218.88 
z
" style="fill:#595959;"/>
    <path clip-path="url(#p2d26842055)" d="M 239.123847 218.88 
L 239.123847 216.96 
L 239.80021 216.96 
L 239.80021 218.88 
z
" style="fill:#595959;"/>
    <path clip-path="url(#p2d26842055)" d="M 239.80021 218.88 
L 239.80021 218.88 
L 240.476574 218.88 
L 240.476574 218.88 
z
" style="fill:#595959;"/>
    <path clip-path="url(#p2d26842055)" d="M 240.476574 218.88 
L 240.476574 218.88 
L 241.152938 218.88 
L 241.152938 218.88 
z
" style="fill:#595959;"/>
    <path clip-path="url(#p2d26842055)" d="M 241.152938 218.88 
L 241.152938 218.88 
L 241.829301 218.88 
L 241.829301 218.88 
z
" style="fill:#595959;"/>
    <path clip-path="url(#p2d26842055)" d="M 241.829301 218.88 
L 241.829301 218.88 
L 242.505665 218.88 
L 242.505665 218.88 
z
" style="fill:#595959;"/>
    <path clip-path="url(#p2d26842055)" d="M 242.505665 218.88 
L 242.505665 218.88 
L 243.182028 218.88 
L 243.182028 218.88 
z
" style="fill:#595959;"/>
    <path clip-path="url(#p2d26842055)" d="M 243.182028 218.88 
L 243.182028 218.88 
L 243.858392 218.88 
L 243.858392 218.88 
z
" style="fill:#595959;"/>
    <path clip-path="url(#p2d26842055)" d="M 243.858392 218.88 
L 243.858392 218.88 
L 244.534756 218.88 
L 244.534756 218.88 
z
" style="fill:#595959;"/>
    <path clip-path="url(#p2d26842055)" d="M 244.534756 218.88 
L 244.534756 218.88 
L 245.211119 218.88 
L 245.211119 218.88 
z
" style="fill:#595959;"/>
    <path clip-path="url(#p2d26842055)" d="M 245.211119 218.88 
L 245.211119 218.88 
L 245.887483 218.88 
L 245.887483 218.88 
z
" style="fill:#595959;"/>
    <path clip-path="url(#p2d26842055)" d="M 245.887483 218.88 
L 245.887483 218.88 
L 246.563847 218.88 
L 246.563847 218.88 
z
" style="fill:#595959;"/>
    <path clip-path="url(#p2d26842055)" d="M 246.563847 218.88 
L 246.563847 218.88 
L 247.24021 218.88 
L 247.24021 218.88 
z
" style="fill:#595959;"/>
    <path clip-path="url(#p2d26842055)" d="M 247.24021 218.88 
L 247.24021 218.88 
L 247.916574 218.88 
L 247.916574 218.88 
z
" style="fill:#595959;"/>
    <path clip-path="url(#p2d26842055)" d="M 247.916574 218.88 
L 247.916574 218.88 
L 248.592938 218.88 
L 248.592938 218.88 
z
" style="fill:#595959;"/>
    <path clip-path="url(#p2d26842055)" d="M 248.592938 218.88 
L 248.592938 218.88 
L 249.269301 218.88 
L 249.269301 218.88 
z
" style="fill:#595959;"/>
    <path clip-path="url(#p2d26842055)" d="M 249.269301 218.88 
L 249.269301 218.88 
L 249.945665 218.88 
L 249.945665 218.88 
z
" style="fill:#595959;"/>
    <path clip-path="url(#p2d26842055)" d="M 249.945665 218.88 
L 249.945665 218.88 
L 250.622028 218.88 
L 250.622028 218.88 
z
" style="fill:#595959;"/>
    <path clip-path="url(#p2d26842055)" d="M 250.622028 218.88 
L 250.622028 218.88 
L 251.298392 218.88 
L 251.298392 218.88 
z
" style="fill:#595959;"/>
    <path clip-path="url(#p2d26842055)" d="M 251.298392 218.88 
L 251.298392 218.88 
L 251.974756 218.88 
L 251.974756 218.88 
z
" style="fill:#595959;"/>
    <path clip-path="url(#p2d26842055)" d="M 251.974756 218.88 
L 251.974756 218.88 
L 252.651119 218.88 
L 252.651119 218.88 
z
" style="fill:#595959;"/>
    <path clip-path="url(#p2d26842055)" d="M 252.651119 218.88 
L 252.651119 218.88 
L 253.327483 218.88 
L 253.327483 218.88 
z
" style="fill:#595959;"/>
    <path clip-path="url(#p2d26842055)" d="M 253.327483 218.88 
L 253.327483 218.88 
L 254.003847 218.88 
L 254.003847 218.88 
z
" style="fill:#595959;"/>
    <path clip-path="url(#p2d26842055)" d="M 254.003847 218.88 
L 254.003847 218.88 
L 254.68021 218.88 
L 254.68021 218.88 
z
" style="fill:#595959;"/>
    <path clip-path="url(#p2d26842055)" d="M 254.68021 218.88 
L 254.68021 218.88 
L 255.356574 218.88 
L 255.356574 218.88 
z
" style="fill:#595959;"/>
    <path clip-path="url(#p2d26842055)" d="M 255.356574 218.88 
L 255.356574 218.88 
L 256.032938 218.88 
L 256.032938 218.88 
z
" style="fill:#595959;"/>
    <path clip-path="url(#p2d26842055)" d="M 256.032938 218.88 
L 256.032938 218.88 
L 256.709301 218.88 
L 256.709301 218.88 
z
" style="fill:#595959;"/>
    <path clip-path="url(#p2d26842055)" d="M 256.709301 218.88 
L 256.709301 218.88 
L 257.385665 218.88 
L 257.385665 218.88 
z
" style="fill:#595959;"/>
    <path clip-path="url(#p2d26842055)" d="M 257.385665 218.88 
L 257.385665 218.88 
L 258.062028 218.88 
L 258.062028 218.88 
z
" style="fill:#595959;"/>
    <path clip-path="url(#p2d26842055)" d="M 258.062028 218.88 
L 258.062028 218.88 
L 258.738392 218.88 
L 258.738392 218.88 
z
" style="fill:#595959;"/>
    <path clip-path="url(#p2d26842055)" d="M 258.738392 218.88 
L 258.738392 218.88 
L 259.414756 218.88 
L 259.414756 218.88 
z
" style="fill:#595959;"/>
    <path clip-path="url(#p2d26842055)" d="M 259.414756 218.88 
L 259.414756 218.88 
L 260.091119 218.88 
L 260.091119 218.88 
z
" style="fill:#595959;"/>
    <path clip-path="url(#p2d26842055)" d="M 260.091119 218.88 
L 260.091119 218.88 
L 260.767483 218.88 
L 260.767483 218.88 
z
" style="fill:#595959;"/>
    <path clip-path="url(#p2d26842055)" d="M 260.767483 218.88 
L 260.767483 218.88 
L 261.443847 218.88 
L 261.443847 218.88 
z
" style="fill:#595959;"/>
    <path clip-path="url(#p2d26842055)" d="M 261.443847 218.88 
L 261.443847 218.88 
L 262.12021 218.88 
L 262.12021 218.88 
z
" style="fill:#595959;"/>
    <path clip-path="url(#p2d26842055)" d="M 262.12021 218.88 
L 262.12021 218.88 
L 262.796574 218.88 
L 262.796574 218.88 
z
" style="fill:#595959;"/>
    <path clip-path="url(#p2d26842055)" d="M 262.796574 218.88 
L 262.796574 218.88 
L 263.472938 218.88 
L 263.472938 218.88 
z
" style="fill:#595959;"/>
    <path clip-path="url(#p2d26842055)" d="M 263.472938 218.88 
L 263.472938 218.88 
L 264.149301 218.88 
L 264.149301 218.88 
z
" style="fill:#595959;"/>
    <path clip-path="url(#p2d26842055)" d="M 264.149301 218.88 
L 264.149301 218.88 
L 264.825665 218.88 
L 264.825665 218.88 
z
" style="fill:#595959;"/>
    <path clip-path="url(#p2d26842055)" d="M 264.825665 218.88 
L 264.825665 218.88 
L 265.502028 218.88 
L 265.502028 218.88 
z
" style="fill:#595959;"/>
    <path clip-path="url(#p2d26842055)" d="M 265.502028 218.88 
L 265.502028 218.88 
L 266.178392 218.88 
L 266.178392 218.88 
z
" style="fill:#595959;"/>
    <path clip-path="url(#p2d26842055)" d="M 266.178392 218.88 
L 266.178392 218.88 
L 266.854756 218.88 
L 266.854756 218.88 
z
" style="fill:#595959;"/>
    <path clip-path="url(#p2d26842055)" d="M 266.854756 218.88 
L 266.854756 218.88 
L 267.531119 218.88 
L 267.531119 218.88 
z
" style="fill:#595959;"/>
    <path clip-path="url(#p2d26842055)" d="M 267.531119 218.88 
L 267.531119 218.88 
L 268.207483 218.88 
L 268.207483 218.88 
z
" style="fill:#595959;"/>
    <path clip-path="url(#p2d26842055)" d="M 268.207483 218.88 
L 268.207483 218.88 
L 268.883847 218.88 
L 268.883847 218.88 
z
" style="fill:#595959;"/>
    <path clip-path="url(#p2d26842055)" d="M 268.883847 218.88 
L 268.883847 218.88 
L 269.56021 218.88 
L 269.56021 218.88 
z
" style="fill:#595959;"/>
    <path clip-path="url(#p2d26842055)" d="M 269.56021 218.88 
L 269.56021 218.88 
L 270.236574 218.88 
L 270.236574 218.88 
z
" style="fill:#595959;"/>
    <path clip-path="url(#p2d26842055)" d="M 270.236574 218.88 
L 270.236574 218.88 
L 270.912937 218.88 
L 270.912937 218.88 
z
" style="fill:#595959;"/>
    <path clip-path="url(#p2d26842055)" d="M 270.912937 218.88 
L 270.912937 218.88 
L 271.589301 218.88 
L 271.589301 218.88 
z
" style="fill:#595959;"/>
    <path clip-path="url(#p2d26842055)" d="M 271.589301 218.88 
L 271.589301 218.88 
L 272.265665 218.88 
L 272.265665 218.88 
z
" style="fill:#595959;"/>
    <path clip-path="url(#p2d26842055)" d="M 272.265665 218.88 
L 272.265665 218.88 
L 272.942028 218.88 
L 272.942028 218.88 
z
" style="fill:#595959;"/>
    <path clip-path="url(#p2d26842055)" d="M 272.942028 218.88 
L 272.942028 218.88 
L 273.618392 218.88 
L 273.618392 218.88 
z
" style="fill:#595959;"/>
    <path clip-path="url(#p2d26842055)" d="M 273.618392 218.88 
L 273.618392 218.88 
L 274.294756 218.88 
L 274.294756 218.88 
z
" style="fill:#595959;"/>
    <path clip-path="url(#p2d26842055)" d="M 274.294756 218.88 
L 274.294756 218.88 
L 274.971119 218.88 
L 274.971119 218.88 
z
" style="fill:#595959;"/>
    <path clip-path="url(#p2d26842055)" d="M 274.971119 218.88 
L 274.971119 218.88 
L 275.647483 218.88 
L 275.647483 218.88 
z
" style="fill:#595959;"/>
    <path clip-path="url(#p2d26842055)" d="M 275.647483 218.88 
L 275.647483 218.88 
L 276.323847 218.88 
L 276.323847 218.88 
z
" style="fill:#595959;"/>
    <path clip-path="url(#p2d26842055)" d="M 276.323847 218.88 
L 276.323847 218.88 
L 277.00021 218.88 
L 277.00021 218.88 
z
" style="fill:#595959;"/>
    <path clip-path="url(#p2d26842055)" d="M 277.00021 218.88 
L 277.00021 218.88 
L 277.676574 218.88 
L 277.676574 218.88 
z
" style="fill:#595959;"/>
    <path clip-path="url(#p2d26842055)" d="M 277.676574 218.88 
L 277.676574 218.88 
L 278.352937 218.88 
L 278.352937 218.88 
z
" style="fill:#595959;"/>
    <path clip-path="url(#p2d26842055)" d="M 278.352937 218.88 
L 278.352937 218.88 
L 279.029301 218.88 
L 279.029301 218.88 
z
" style="fill:#595959;"/>
    <path clip-path="url(#p2d26842055)" d="M 279.029301 218.88 
L 279.029301 216.96 
L 279.705665 216.96 
L 279.705665 218.88 
z
" style="fill:#595959;"/>
    <path clip-path="url(#p2d26842055)" d="M 279.705665 218.88 
L 279.705665 218.88 
L 280.382028 218.88 
L 280.382028 218.88 
z
" style="fill:#595959;"/>
    <path clip-path="url(#p2d26842055)" d="M 280.382028 218.88 
L 280.382028 218.88 
L 281.058392 218.88 
L 281.058392 218.88 
z
" style="fill:#595959;"/>
    <path clip-path="url(#p2d26842055)" d="M 281.058392 218.88 
L 281.058392 218.88 
L 281.734756 218.88 
L 281.734756 218.88 
z
" style="fill:#595959;"/>
    <path clip-path="url(#p2d26842055)" d="M 281.734756 218.88 
L 281.734756 218.88 
L 282.411119 218.88 
L 282.411119 218.88 
z
" style="fill:#595959;"/>
    <path clip-path="url(#p2d26842055)" d="M 282.411119 218.88 
L 282.411119 218.88 
L 283.087483 218.88 
L 283.087483 218.88 
z
" style="fill:#595959;"/>
    <path clip-path="url(#p2d26842055)" d="M 283.087483 218.88 
L 283.087483 218.88 
L 283.763847 218.88 
L 283.763847 218.88 
z
" style="fill:#595959;"/>
    <path clip-path="url(#p2d26842055)" d="M 283.763847 218.88 
L 283.763847 218.88 
L 284.44021 218.88 
L 284.44021 218.88 
z
" style="fill:#595959;"/>
    <path clip-path="url(#p2d26842055)" d="M 284.44021 218.88 
L 284.44021 218.88 
L 285.116574 218.88 
L 285.116574 218.88 
z
" style="fill:#595959;"/>
    <path clip-path="url(#p2d26842055)" d="M 285.116574 218.88 
L 285.116574 218.88 
L 285.792937 218.88 
L 285.792937 218.88 
z
" style="fill:#595959;"/>
    <path clip-path="url(#p2d26842055)" d="M 285.792938 218.88 
L 285.792938 218.88 
L 286.469301 218.88 
L 286.469301 218.88 
z
" style="fill:#595959;"/>
    <path clip-path="url(#p2d26842055)" d="M 286.469301 218.88 
L 286.469301 218.88 
L 287.145665 218.88 
L 287.145665 218.88 
z
" style="fill:#595959;"/>
    <path clip-path="url(#p2d26842055)" d="M 287.145665 218.88 
L 287.145665 218.88 
L 287.822028 218.88 
L 287.822028 218.88 
z
" style="fill:#595959;"/>
    <path clip-path="url(#p2d26842055)" d="M 287.822028 218.88 
L 287.822028 218.88 
L 288.498392 218.88 
L 288.498392 218.88 
z
" style="fill:#595959;"/>
    <path clip-path="url(#p2d26842055)" d="M 288.498392 218.88 
L 288.498392 218.88 
L 289.174756 218.88 
L 289.174756 218.88 
z
" style="fill:#595959;"/>
    <path clip-path="url(#p2d26842055)" d="M 289.174756 218.88 
L 289.174756 218.88 
L 289.851119 218.88 
L 289.851119 218.88 
z
" style="fill:#595959;"/>
    <path clip-path="url(#p2d26842055)" d="M 289.851119 218.88 
L 289.851119 218.88 
L 290.527483 218.88 
L 290.527483 218.88 
z
" style="fill:#595959;"/>
    <path clip-path="url(#p2d26842055)" d="M 290.527483 218.88 
L 290.527483 218.88 
L 291.203847 218.88 
L 291.203847 218.88 
z
" style="fill:#595959;"/>
    <path clip-path="url(#p2d26842055)" d="M 291.203847 218.88 
L 291.203847 218.88 
L 291.88021 218.88 
L 291.88021 218.88 
z
" style="fill:#595959;"/>
    <path clip-path="url(#p2d26842055)" d="M 291.88021 218.88 
L 291.88021 218.88 
L 292.556574 218.88 
L 292.556574 218.88 
z
" style="fill:#595959;"/>
    <path clip-path="url(#p2d26842055)" d="M 292.556574 218.88 
L 292.556574 218.88 
L 293.232937 218.88 
L 293.232937 218.88 
z
" style="fill:#595959;"/>
    <path clip-path="url(#p2d26842055)" d="M 293.232937 218.88 
L 293.232937 218.88 
L 293.909301 218.88 
L 293.909301 218.88 
z
" style="fill:#595959;"/>
    <path clip-path="url(#p2d26842055)" d="M 293.909301 218.88 
L 293.909301 218.88 
L 294.585665 218.88 
L 294.585665 218.88 
z
" style="fill:#595959;"/>
    <path clip-path="url(#p2d26842055)" d="M 294.585665 218.88 
L 294.585665 218.88 
L 295.262028 218.88 
L 295.262028 218.88 
z
" style="fill:#595959;"/>
    <path clip-path="url(#p2d26842055)" d="M 295.262028 218.88 
L 295.262028 218.88 
L 295.938392 218.88 
L 295.938392 218.88 
z
" style="fill:#595959;"/>
    <path clip-path="url(#p2d26842055)" d="M 295.938392 218.88 
L 295.938392 218.88 
L 296.614756 218.88 
L 296.614756 218.88 
z
" style="fill:#595959;"/>
    <path clip-path="url(#p2d26842055)" d="M 296.614756 218.88 
L 296.614756 218.88 
L 297.291119 218.88 
L 297.291119 218.88 
z
" style="fill:#595959;"/>
    <path clip-path="url(#p2d26842055)" d="M 297.291119 218.88 
L 297.291119 218.88 
L 297.967483 218.88 
L 297.967483 218.88 
z
" style="fill:#595959;"/>
    <path clip-path="url(#p2d26842055)" d="M 297.967483 218.88 
L 297.967483 218.88 
L 298.643847 218.88 
L 298.643847 218.88 
z
" style="fill:#595959;"/>
    <path clip-path="url(#p2d26842055)" d="M 298.643847 218.88 
L 298.643847 218.88 
L 299.32021 218.88 
L 299.32021 218.88 
z
" style="fill:#595959;"/>
    <path clip-path="url(#p2d26842055)" d="M 299.32021 218.88 
L 299.32021 218.88 
L 299.996574 218.88 
L 299.996574 218.88 
z
" style="fill:#595959;"/>
    <path clip-path="url(#p2d26842055)" d="M 299.996574 218.88 
L 299.996574 218.88 
L 300.672937 218.88 
L 300.672937 218.88 
z
" style="fill:#595959;"/>
    <path clip-path="url(#p2d26842055)" d="M 300.672937 218.88 
L 300.672937 218.88 
L 301.349301 218.88 
L 301.349301 218.88 
z
" style="fill:#595959;"/>
    <path clip-path="url(#p2d26842055)" d="M 301.349301 218.88 
L 301.349301 218.88 
L 302.025665 218.88 
L 302.025665 218.88 
z
" style="fill:#595959;"/>
    <path clip-path="url(#p2d26842055)" d="M 302.025665 218.88 
L 302.025665 218.88 
L 302.702028 218.88 
L 302.702028 218.88 
z
" style="fill:#595959;"/>
    <path clip-path="url(#p2d26842055)" d="M 302.702028 218.88 
L 302.702028 218.88 
L 303.378392 218.88 
L 303.378392 218.88 
z
" style="fill:#595959;"/>
    <path clip-path="url(#p2d26842055)" d="M 303.378392 218.88 
L 303.378392 218.88 
L 304.054756 218.88 
L 304.054756 218.88 
z
" style="fill:#595959;"/>
    <path clip-path="url(#p2d26842055)" d="M 304.054756 218.88 
L 304.054756 218.88 
L 304.731119 218.88 
L 304.731119 218.88 
z
" style="fill:#595959;"/>
    <path clip-path="url(#p2d26842055)" d="M 304.731119 218.88 
L 304.731119 218.88 
L 305.407483 218.88 
L 305.407483 218.88 
z
" style="fill:#595959;"/>
    <path clip-path="url(#p2d26842055)" d="M 305.407483 218.88 
L 305.407483 218.88 
L 306.083847 218.88 
L 306.083847 218.88 
z
" style="fill:#595959;"/>
    <path clip-path="url(#p2d26842055)" d="M 306.083847 218.88 
L 306.083847 218.88 
L 306.76021 218.88 
L 306.76021 218.88 
z
" style="fill:#595959;"/>
    <path clip-path="url(#p2d26842055)" d="M 306.76021 218.88 
L 306.76021 218.88 
L 307.436574 218.88 
L 307.436574 218.88 
z
" style="fill:#595959;"/>
    <path clip-path="url(#p2d26842055)" d="M 307.436574 218.88 
L 307.436574 218.88 
L 308.112937 218.88 
L 308.112937 218.88 
z
" style="fill:#595959;"/>
    <path clip-path="url(#p2d26842055)" d="M 308.112938 218.88 
L 308.112938 218.88 
L 308.789301 218.88 
L 308.789301 218.88 
z
" style="fill:#595959;"/>
    <path clip-path="url(#p2d26842055)" d="M 308.789301 218.88 
L 308.789301 218.88 
L 309.465665 218.88 
L 309.465665 218.88 
z
" style="fill:#595959;"/>
    <path clip-path="url(#p2d26842055)" d="M 309.465665 218.88 
L 309.465665 218.88 
L 310.142028 218.88 
L 310.142028 218.88 
z
" style="fill:#595959;"/>
    <path clip-path="url(#p2d26842055)" d="M 310.142028 218.88 
L 310.142028 218.88 
L 310.818392 218.88 
L 310.818392 218.88 
z
" style="fill:#595959;"/>
    <path clip-path="url(#p2d26842055)" d="M 310.818392 218.88 
L 310.818392 218.88 
L 311.494756 218.88 
L 311.494756 218.88 
z
" style="fill:#595959;"/>
    <path clip-path="url(#p2d26842055)" d="M 311.494756 218.88 
L 311.494756 218.88 
L 312.171119 218.88 
L 312.171119 218.88 
z
" style="fill:#595959;"/>
    <path clip-path="url(#p2d26842055)" d="M 312.171119 218.88 
L 312.171119 218.88 
L 312.847483 218.88 
L 312.847483 218.88 
z
" style="fill:#595959;"/>
    <path clip-path="url(#p2d26842055)" d="M 312.847483 218.88 
L 312.847483 218.88 
L 313.523847 218.88 
L 313.523847 218.88 
z
" style="fill:#595959;"/>
    <path clip-path="url(#p2d26842055)" d="M 313.523847 218.88 
L 313.523847 218.88 
L 314.20021 218.88 
L 314.20021 218.88 
z
" style="fill:#595959;"/>
    <path clip-path="url(#p2d26842055)" d="M 314.20021 218.88 
L 314.20021 218.88 
L 314.876574 218.88 
L 314.876574 218.88 
z
" style="fill:#595959;"/>
    <path clip-path="url(#p2d26842055)" d="M 314.876574 218.88 
L 314.876574 218.88 
L 315.552937 218.88 
L 315.552937 218.88 
z
" style="fill:#595959;"/>
    <path clip-path="url(#p2d26842055)" d="M 315.552937 218.88 
L 315.552937 218.88 
L 316.229301 218.88 
L 316.229301 218.88 
z
" style="fill:#595959;"/>
    <path clip-path="url(#p2d26842055)" d="M 316.229301 218.88 
L 316.229301 218.88 
L 316.905665 218.88 
L 316.905665 218.88 
z
" style="fill:#595959;"/>
    <path clip-path="url(#p2d26842055)" d="M 316.905665 218.88 
L 316.905665 218.88 
L 317.582028 218.88 
L 317.582028 218.88 
z
" style="fill:#595959;"/>
    <path clip-path="url(#p2d26842055)" d="M 317.582028 218.88 
L 317.582028 218.88 
L 318.258392 218.88 
L 318.258392 218.88 
z
" style="fill:#595959;"/>
    <path clip-path="url(#p2d26842055)" d="M 318.258392 218.88 
L 318.258392 218.88 
L 318.934756 218.88 
L 318.934756 218.88 
z
" style="fill:#595959;"/>
    <path clip-path="url(#p2d26842055)" d="M 318.934756 218.88 
L 318.934756 218.88 
L 319.611119 218.88 
L 319.611119 218.88 
z
" style="fill:#595959;"/>
    <path clip-path="url(#p2d26842055)" d="M 319.611119 218.88 
L 319.611119 218.88 
L 320.287483 218.88 
L 320.287483 218.88 
z
" style="fill:#595959;"/>
    <path clip-path="url(#p2d26842055)" d="M 320.287483 218.88 
L 320.287483 218.88 
L 320.963847 218.88 
L 320.963847 218.88 
z
" style="fill:#595959;"/>
    <path clip-path="url(#p2d26842055)" d="M 320.963847 218.88 
L 320.963847 218.88 
L 321.64021 218.88 
L 321.64021 218.88 
z
" style="fill:#595959;"/>
    <path clip-path="url(#p2d26842055)" d="M 321.64021 218.88 
L 321.64021 218.88 
L 322.316574 218.88 
L 322.316574 218.88 
z
" style="fill:#595959;"/>
    <path clip-path="url(#p2d26842055)" d="M 322.316574 218.88 
L 322.316574 218.88 
L 322.992937 218.88 
L 322.992937 218.88 
z
" style="fill:#595959;"/>
    <path clip-path="url(#p2d26842055)" d="M 322.992938 218.88 
L 322.992938 218.88 
L 323.669301 218.88 
L 323.669301 218.88 
z
" style="fill:#595959;"/>
    <path clip-path="url(#p2d26842055)" d="M 323.669301 218.88 
L 323.669301 218.88 
L 324.345665 218.88 
L 324.345665 218.88 
z
" style="fill:#595959;"/>
    <path clip-path="url(#p2d26842055)" d="M 324.345665 218.88 
L 324.345665 218.88 
L 325.022028 218.88 
L 325.022028 218.88 
z
" style="fill:#595959;"/>
    <path clip-path="url(#p2d26842055)" d="M 325.022028 218.88 
L 325.022028 218.88 
L 325.698392 218.88 
L 325.698392 218.88 
z
" style="fill:#595959;"/>
    <path clip-path="url(#p2d26842055)" d="M 325.698392 218.88 
L 325.698392 218.88 
L 326.374756 218.88 
L 326.374756 218.88 
z
" style="fill:#595959;"/>
    <path clip-path="url(#p2d26842055)" d="M 326.374756 218.88 
L 326.374756 218.88 
L 327.051119 218.88 
L 327.051119 218.88 
z
" style="fill:#595959;"/>
    <path clip-path="url(#p2d26842055)" d="M 327.051119 218.88 
L 327.051119 218.88 
L 327.727483 218.88 
L 327.727483 218.88 
z
" style="fill:#595959;"/>
    <path clip-path="url(#p2d26842055)" d="M 327.727483 218.88 
L 327.727483 218.88 
L 328.403847 218.88 
L 328.403847 218.88 
z
" style="fill:#595959;"/>
    <path clip-path="url(#p2d26842055)" d="M 328.403847 218.88 
L 328.403847 218.88 
L 329.08021 218.88 
L 329.08021 218.88 
z
" style="fill:#595959;"/>
    <path clip-path="url(#p2d26842055)" d="M 329.08021 218.88 
L 329.08021 218.88 
L 329.756574 218.88 
L 329.756574 218.88 
z
" style="fill:#595959;"/>
    <path clip-path="url(#p2d26842055)" d="M 329.756574 218.88 
L 329.756574 218.88 
L 330.432937 218.88 
L 330.432937 218.88 
z
" style="fill:#595959;"/>
    <path clip-path="url(#p2d26842055)" d="M 330.432937 218.88 
L 330.432937 218.88 
L 331.109301 218.88 
L 331.109301 218.88 
z
" style="fill:#595959;"/>
    <path clip-path="url(#p2d26842055)" d="M 331.109301 218.88 
L 331.109301 218.88 
L 331.785665 218.88 
L 331.785665 218.88 
z
" style="fill:#595959;"/>
    <path clip-path="url(#p2d26842055)" d="M 331.785665 218.88 
L 331.785665 218.88 
L 332.462028 218.88 
L 332.462028 218.88 
z
" style="fill:#595959;"/>
    <path clip-path="url(#p2d26842055)" d="M 332.462028 218.88 
L 332.462028 218.88 
L 333.138392 218.88 
L 333.138392 218.88 
z
" style="fill:#595959;"/>
    <path clip-path="url(#p2d26842055)" d="M 333.138392 218.88 
L 333.138392 218.88 
L 333.814756 218.88 
L 333.814756 218.88 
z
" style="fill:#595959;"/>
    <path clip-path="url(#p2d26842055)" d="M 333.814756 218.88 
L 333.814756 218.88 
L 334.491119 218.88 
L 334.491119 218.88 
z
" style="fill:#595959;"/>
    <path clip-path="url(#p2d26842055)" d="M 334.491119 218.88 
L 334.491119 218.88 
L 335.167483 218.88 
L 335.167483 218.88 
z
" style="fill:#595959;"/>
    <path clip-path="url(#p2d26842055)" d="M 335.167483 218.88 
L 335.167483 218.88 
L 335.843847 218.88 
L 335.843847 218.88 
z
" style="fill:#595959;"/>
    <path clip-path="url(#p2d26842055)" d="M 335.843847 218.88 
L 335.843847 218.88 
L 336.52021 218.88 
L 336.52021 218.88 
z
" style="fill:#595959;"/>
    <path clip-path="url(#p2d26842055)" d="M 336.52021 218.88 
L 336.52021 218.88 
L 337.196574 218.88 
L 337.196574 218.88 
z
" style="fill:#595959;"/>
    <path clip-path="url(#p2d26842055)" d="M 337.196574 218.88 
L 337.196574 218.88 
L 337.872937 218.88 
L 337.872937 218.88 
z
" style="fill:#595959;"/>
    <path clip-path="url(#p2d26842055)" d="M 337.872937 218.88 
L 337.872937 218.88 
L 338.549301 218.88 
L 338.549301 218.88 
z
" style="fill:#595959;"/>
    <path clip-path="url(#p2d26842055)" d="M 338.549301 218.88 
L 338.549301 218.88 
L 339.225665 218.88 
L 339.225665 218.88 
z
" style="fill:#595959;"/>
    <path clip-path="url(#p2d26842055)" d="M 339.225665 218.88 
L 339.225665 218.88 
L 339.902028 218.88 
L 339.902028 218.88 
z
" style="fill:#595959;"/>
    <path clip-path="url(#p2d26842055)" d="M 339.902028 218.88 
L 339.902028 218.88 
L 340.578392 218.88 
L 340.578392 218.88 
z
" style="fill:#595959;"/>
    <path clip-path="url(#p2d26842055)" d="M 340.578392 218.88 
L 340.578392 218.88 
L 341.254756 218.88 
L 341.254756 218.88 
z
" style="fill:#595959;"/>
    <path clip-path="url(#p2d26842055)" d="M 341.254756 218.88 
L 341.254756 218.88 
L 341.931119 218.88 
L 341.931119 218.88 
z
" style="fill:#595959;"/>
    <path clip-path="url(#p2d26842055)" d="M 341.931119 218.88 
L 341.931119 218.88 
L 342.607483 218.88 
L 342.607483 218.88 
z
" style="fill:#595959;"/>
    <path clip-path="url(#p2d26842055)" d="M 342.607483 218.88 
L 342.607483 218.88 
L 343.283847 218.88 
L 343.283847 218.88 
z
" style="fill:#595959;"/>
    <path clip-path="url(#p2d26842055)" d="M 343.283847 218.88 
L 343.283847 218.88 
L 343.96021 218.88 
L 343.96021 218.88 
z
" style="fill:#595959;"/>
    <path clip-path="url(#p2d26842055)" d="M 343.96021 218.88 
L 343.96021 218.88 
L 344.636574 218.88 
L 344.636574 218.88 
z
" style="fill:#595959;"/>
    <path clip-path="url(#p2d26842055)" d="M 344.636574 218.88 
L 344.636574 218.88 
L 345.312937 218.88 
L 345.312937 218.88 
z
" style="fill:#595959;"/>
    <path clip-path="url(#p2d26842055)" d="M 345.312938 218.88 
L 345.312938 218.88 
L 345.989301 218.88 
L 345.989301 218.88 
z
" style="fill:#595959;"/>
    <path clip-path="url(#p2d26842055)" d="M 345.989301 218.88 
L 345.989301 218.88 
L 346.665665 218.88 
L 346.665665 218.88 
z
" style="fill:#595959;"/>
    <path clip-path="url(#p2d26842055)" d="M 346.665665 218.88 
L 346.665665 218.88 
L 347.342028 218.88 
L 347.342028 218.88 
z
" style="fill:#595959;"/>
    <path clip-path="url(#p2d26842055)" d="M 347.342028 218.88 
L 347.342028 218.88 
L 348.018392 218.88 
L 348.018392 218.88 
z
" style="fill:#595959;"/>
    <path clip-path="url(#p2d26842055)" d="M 348.018392 218.88 
L 348.018392 218.88 
L 348.694756 218.88 
L 348.694756 218.88 
z
" style="fill:#595959;"/>
    <path clip-path="url(#p2d26842055)" d="M 348.694756 218.88 
L 348.694756 218.88 
L 349.371119 218.88 
L 349.371119 218.88 
z
" style="fill:#595959;"/>
    <path clip-path="url(#p2d26842055)" d="M 349.371119 218.88 
L 349.371119 218.88 
L 350.047483 218.88 
L 350.047483 218.88 
z
" style="fill:#595959;"/>
    <path clip-path="url(#p2d26842055)" d="M 350.047483 218.88 
L 350.047483 218.88 
L 350.723847 218.88 
L 350.723847 218.88 
z
" style="fill:#595959;"/>
    <path clip-path="url(#p2d26842055)" d="M 350.723847 218.88 
L 350.723847 218.88 
L 351.40021 218.88 
L 351.40021 218.88 
z
" style="fill:#595959;"/>
    <path clip-path="url(#p2d26842055)" d="M 351.40021 218.88 
L 351.40021 218.88 
L 352.076574 218.88 
L 352.076574 218.88 
z
" style="fill:#595959;"/>
    <path clip-path="url(#p2d26842055)" d="M 352.076574 218.88 
L 352.076574 218.88 
L 352.752937 218.88 
L 352.752937 218.88 
z
" style="fill:#595959;"/>
    <path clip-path="url(#p2d26842055)" d="M 352.752937 218.88 
L 352.752937 218.88 
L 353.429301 218.88 
L 353.429301 218.88 
z
" style="fill:#595959;"/>
    <path clip-path="url(#p2d26842055)" d="M 353.429301 218.88 
L 353.429301 218.88 
L 354.105665 218.88 
L 354.105665 218.88 
z
" style="fill:#595959;"/>
    <path clip-path="url(#p2d26842055)" d="M 354.105665 218.88 
L 354.105665 218.88 
L 354.782028 218.88 
L 354.782028 218.88 
z
" style="fill:#595959;"/>
    <path clip-path="url(#p2d26842055)" d="M 354.782028 218.88 
L 354.782028 218.88 
L 355.458392 218.88 
L 355.458392 218.88 
z
" style="fill:#595959;"/>
    <path clip-path="url(#p2d26842055)" d="M 355.458392 218.88 
L 355.458392 218.88 
L 356.134756 218.88 
L 356.134756 218.88 
z
" style="fill:#595959;"/>
    <path clip-path="url(#p2d26842055)" d="M 356.134756 218.88 
L 356.134756 218.88 
L 356.811119 218.88 
L 356.811119 218.88 
z
" style="fill:#595959;"/>
    <path clip-path="url(#p2d26842055)" d="M 356.811119 218.88 
L 356.811119 218.88 
L 357.487483 218.88 
L 357.487483 218.88 
z
" style="fill:#595959;"/>
    <path clip-path="url(#p2d26842055)" d="M 357.487483 218.88 
L 357.487483 218.88 
L 358.163847 218.88 
L 358.163847 218.88 
z
" style="fill:#595959;"/>
    <path clip-path="url(#p2d26842055)" d="M 358.163847 218.88 
L 358.163847 218.88 
L 358.84021 218.88 
L 358.84021 218.88 
z
" style="fill:#595959;"/>
    <path clip-path="url(#p2d26842055)" d="M 358.84021 218.88 
L 358.84021 218.88 
L 359.516574 218.88 
L 359.516574 218.88 
z
" style="fill:#595959;"/>
    <path clip-path="url(#p2d26842055)" d="M 359.516574 218.88 
L 359.516574 218.88 
L 360.192937 218.88 
L 360.192937 218.88 
z
" style="fill:#595959;"/>
    <path clip-path="url(#p2d26842055)" d="M 360.192937 218.88 
L 360.192937 218.88 
L 360.869301 218.88 
L 360.869301 218.88 
z
" style="fill:#595959;"/>
    <path clip-path="url(#p2d26842055)" d="M 360.869301 218.88 
L 360.869301 218.88 
L 361.545665 218.88 
L 361.545665 218.88 
z
" style="fill:#595959;"/>
    <path clip-path="url(#p2d26842055)" d="M 361.545665 218.88 
L 361.545665 218.88 
L 362.222028 218.88 
L 362.222028 218.88 
z
" style="fill:#595959;"/>
    <path clip-path="url(#p2d26842055)" d="M 362.222028 218.88 
L 362.222028 218.88 
L 362.898392 218.88 
L 362.898392 218.88 
z
" style="fill:#595959;"/>
    <path clip-path="url(#p2d26842055)" d="M 362.898392 218.88 
L 362.898392 216.96 
L 363.574756 216.96 
L 363.574756 218.88 
z
" style="fill:#595959;"/>
   </g>
  </g>
 </g>
 <defs>
  <clipPath id="p2d26842055">
   <rect height="221.76" width="334.8" x="43.992938" y="7.2"/>
  </clipPath>
 </defs>
</svg>
